<svg width="19" height="19" viewBox="0 0 19 19" fill="none" xmlns="http://www.w3.org/2000/svg">
<path d="M9.17306 0.248474C4.12964 0.248474 0.0268555 4.35126 0.0268555 9.39468C0.0268555 14.4381 4.12964 18.5409 9.17306 18.5409C14.2165 18.5409 18.3193 14.4381 18.3193 9.39468C18.3193 4.35126 14.2165 0.248474 9.17306 0.248474ZM13.5229 14.1255C13.3742 14.2741 13.1791 14.3489 12.984 14.3489C12.7889 14.3489 12.5937 14.2741 12.4452 14.1255L8.63422 10.3147C8.49089 10.1722 8.41092 9.97845 8.41092 9.77581V4.82157C8.41092 4.4001 8.75228 4.05944 9.17306 4.05944C9.59383 4.05944 9.93519 4.4001 9.93519 4.82157V9.46027L13.5229 13.0478C13.8208 13.3459 13.8208 13.8275 13.5229 14.1255Z" fill="#A91938"/>
</svg>
