<svg width="46" height="41" viewBox="0 0 46 41" fill="none" xmlns="http://www.w3.org/2000/svg">
<path d="M10.0614 6.25777e-07C9.67528 0.000190996 9.29629 0.095449 8.96403 0.275824C8.63177 0.456199 8.35844 0.715071 8.17258 1.0254L0.266543 14.2053C0.0581839 14.553 -0.0313026 14.95 0.00971424 15.3449C0.0507311 15.7398 0.220355 16.1142 0.496537 16.4195L21.3397 39.4844C21.5421 39.7083 21.7957 39.8885 22.0827 40.0122C22.3697 40.1359 22.6829 40.2 23 40.2C23.3171 40.2 23.6303 40.1359 23.9173 40.0122C24.2043 39.8885 24.4579 39.7083 24.6603 39.4844L45.5035 16.4195C45.7796 16.1142 45.9493 15.7398 45.9903 15.3449C46.0313 14.95 45.9418 14.553 45.7335 14.2053L37.8274 1.0254C37.6413 0.714679 37.3675 0.455552 37.0347 0.275153C36.7019 0.0947533 36.3223 -0.000281376 35.9357 6.25777e-07H10.0614ZM6.19751 12.5209L11.335 3.95398H15.6474L12.3757 12.5209H6.19751ZM11.9129 16.4749L17.4586 28.9906L6.14576 16.4749H11.9129ZM22.9669 30.9227L16.5674 16.4749H29.1768L22.9669 30.9227ZM16.9468 12.5209L20.2156 3.95398H25.8074L29.2486 12.5209H16.944H16.9468ZM33.8456 12.5209L30.4044 3.95398H34.6593L39.7996 12.5209H33.8456ZM33.8111 16.4749H39.8485L28.3344 29.2173L33.8111 16.4749Z" fill="#A91938"/>
</svg>
