<svg width="14" height="19" viewBox="0 0 14 19" fill="none" xmlns="http://www.w3.org/2000/svg">
<path d="M11.9 9.13102C11.818 10.3224 11.1386 11.1588 10.3543 11.5133C9.52257 11.8891 8.68192 11.6818 8.26221 10.9974C7.57504 9.87679 8.04723 9.09686 8.50384 8.34259C9.02157 7.48731 9.60844 6.51788 9.04557 4.63269C8.60121 3.1444 7.73096 1.89491 6.45896 0.918908C6.06243 0.614689 5.68636 0.385892 5.38116 0.222046C5.80743 1.25964 6.36175 3.19045 5.78272 5.32366C5.41548 6.67676 4.4449 7.70214 3.50626 8.69375C2.27 9.99987 0.991577 11.3504 0.991577 13.5083C0.991577 15.1823 1.57482 16.5159 2.72504 17.472C3.59607 18.196 4.48488 18.4779 4.49374 18.4801H6.61461L6.57022 18.4793C6.56204 18.4729 5.75404 17.8351 5.74012 17.1037C5.73364 16.7618 5.91305 16.4339 6.27337 16.129C6.81459 15.671 7.11205 15.1779 7.18282 14.6215C7.22609 14.2812 7.18234 13.9215 7.04936 13.5332C7.94703 13.9097 8.87559 14.7317 9.19026 15.7521C9.47285 16.6685 9.21144 17.6109 8.435 18.4801H10.7561C12.2765 17.289 13.1324 15.8616 13.3002 14.2375C13.5141 12.1668 12.5674 10.2166 11.9 9.13102Z" fill="#A91938"/>
</svg>
