<svg width="515" height="304" viewBox="0 0 515 304" fill="none" xmlns="http://www.w3.org/2000/svg">
<path d="M39.9413 295.672L39.9776 296.543C40.5533 295.865 41.3299 295.527 42.3072 295.527C43.4054 295.527 44.1529 295.948 44.5496 296.79C44.8109 296.412 45.1495 296.107 45.5656 295.875C45.9865 295.643 46.4824 295.527 47.0533 295.527C48.7757 295.527 49.6514 296.439 49.6804 298.263V303.524H48.3378V298.343C48.3378 297.781 48.2096 297.363 47.9532 297.087C47.6968 296.806 47.2662 296.666 46.6614 296.666C46.1631 296.666 45.7494 296.816 45.4205 297.116C45.0915 297.411 44.9004 297.81 44.8471 298.314V303.524H43.4973V298.379C43.4973 297.237 42.9385 296.666 41.8209 296.666C40.9404 296.666 40.3381 297.041 40.0139 297.791V303.524H38.6713V295.672H39.9413ZM51.3568 299.525C51.3568 298.756 51.5068 298.064 51.8067 297.45C52.1115 296.836 52.5324 296.361 53.0695 296.028C53.6113 295.694 54.2282 295.527 54.92 295.527C55.9892 295.527 56.8528 295.897 57.5108 296.637C58.1736 297.377 58.505 298.362 58.505 299.591V299.685C58.505 300.45 58.3575 301.137 58.0624 301.746C57.7721 302.351 57.3536 302.823 56.8069 303.161C56.265 303.5 55.6409 303.669 54.9345 303.669C53.8702 303.669 53.0066 303.299 52.3437 302.559C51.6858 301.819 51.3568 300.839 51.3568 299.62V299.525ZM52.7066 299.685C52.7066 300.556 52.9074 301.255 53.3089 301.782C53.7153 302.31 54.2572 302.573 54.9345 302.573C55.6167 302.573 56.1586 302.307 56.5601 301.775C56.9617 301.238 57.1625 300.488 57.1625 299.525C57.1625 298.664 56.9569 297.968 56.5456 297.435C56.1392 296.898 55.5974 296.63 54.92 296.63C54.2572 296.63 53.7226 296.894 53.3162 297.421C52.9098 297.948 52.7066 298.703 52.7066 299.685ZM61.4587 295.672L61.5022 296.659C62.1022 295.904 62.8859 295.527 63.8535 295.527C65.513 295.527 66.35 296.463 66.3645 298.335V303.524H65.0219V298.328C65.0171 297.762 64.8865 297.344 64.63 297.073C64.3785 296.802 63.9842 296.666 63.4471 296.666C63.0117 296.666 62.6295 296.782 62.3005 297.015C61.9715 297.247 61.7151 297.552 61.5313 297.929V303.524H60.1887V295.672H61.4587Z" fill="#2A365D"/>
<path d="M21.9579 265.097C21.9579 266.669 21.6894 267.837 21.1524 268.602C20.6154 269.366 19.776 269.748 18.6342 269.748C17.5069 269.748 16.6723 269.376 16.1305 268.631C15.5886 267.881 15.308 266.763 15.2887 265.278V263.486C15.2887 261.932 15.5572 260.779 16.0942 260.024C16.6312 259.269 17.473 258.892 18.6197 258.892C19.7566 258.892 20.5936 259.257 21.1306 259.988C21.6677 260.713 21.9434 261.836 21.9579 263.355V265.097ZM20.6154 263.261C20.6154 262.124 20.4557 261.296 20.1364 260.779C19.8171 260.256 19.3115 259.995 18.6197 259.995C17.9327 259.995 17.4319 260.254 17.1174 260.771C16.803 261.289 16.6409 262.085 16.6312 263.159V265.307C16.6312 266.449 16.7957 267.293 17.1247 267.84C17.4585 268.382 17.9617 268.653 18.6342 268.653C19.297 268.653 19.7881 268.396 20.1074 267.883C20.4315 267.37 20.6009 266.563 20.6154 265.459V263.261Z" fill="#2A365D"/>
<path d="M10.1529 219H8.80309V210.052L6.09619 211.046V209.827L9.94246 208.383H10.1529V219ZM20.712 214.493C20.712 216.066 20.4435 217.234 19.9065 217.999C19.3695 218.763 18.5301 219.145 17.3883 219.145C16.261 219.145 15.4264 218.773 14.8846 218.028C14.3427 217.278 14.0621 216.16 14.0427 214.675V212.882C14.0427 211.329 14.3112 210.175 14.8483 209.421C15.3853 208.666 16.2271 208.288 17.3738 208.288C18.5107 208.288 19.3477 208.654 19.8847 209.384C20.4217 210.11 20.6975 211.232 20.712 212.752V214.493ZM19.3695 212.657C19.3695 211.52 19.2098 210.693 18.8905 210.175C18.5712 209.653 18.0656 209.392 17.3738 209.392C16.6867 209.392 16.186 209.65 15.8715 210.168C15.5571 210.686 15.395 211.482 15.3853 212.556V214.704C15.3853 215.846 15.5498 216.69 15.8788 217.237C16.2126 217.778 16.7158 218.049 17.3883 218.049C18.0511 218.049 18.5421 217.793 18.8615 217.28C19.1856 216.767 19.3549 215.959 19.3695 214.856V212.657ZM29.0577 214.493C29.0577 216.066 28.7892 217.234 28.2522 217.999C27.7151 218.763 26.8757 219.145 25.7339 219.145C24.6067 219.145 23.7721 218.773 23.2302 218.028C22.6884 217.278 22.4078 216.16 22.3884 214.675V212.882C22.3884 211.329 22.6569 210.175 23.194 209.421C23.731 208.666 24.5728 208.288 25.7194 208.288C26.8564 208.288 27.6934 208.654 28.2304 209.384C28.7674 210.11 29.0432 211.232 29.0577 212.752V214.493ZM27.7151 212.657C27.7151 211.52 27.5555 210.693 27.2362 210.175C26.9169 209.653 26.4113 209.392 25.7194 209.392C25.0324 209.392 24.5317 209.65 24.2172 210.168C23.9027 210.686 23.7407 211.482 23.731 212.556V214.704C23.731 215.846 23.8955 216.69 24.2245 217.237C24.5583 217.778 25.0615 218.049 25.7339 218.049C26.3968 218.049 26.8878 217.793 27.2071 217.28C27.5313 216.767 27.7006 215.959 27.7151 214.856V212.657Z" fill="#2A365D"/>
<path d="M12.6639 168H5.74059V167.035L9.39818 162.971C9.94004 162.356 10.3126 161.858 10.5158 161.476C10.7238 161.089 10.8278 160.69 10.8278 160.278C10.8278 159.727 10.6609 159.275 10.3271 158.921C9.99326 158.568 9.54816 158.392 8.99178 158.392C8.32413 158.392 7.80403 158.583 7.4315 158.965C7.06381 159.342 6.87996 159.87 6.87996 160.547H5.53739C5.53739 159.574 5.84945 158.788 6.47356 158.188C7.10251 157.588 7.94192 157.288 8.99178 157.288C9.97391 157.288 10.7504 157.547 11.3213 158.065C11.8922 158.578 12.1777 159.262 12.1777 160.119C12.1777 161.159 11.5148 162.398 10.1892 163.834L7.35893 166.904H12.6639V168ZM20.712 163.493C20.712 165.066 20.4435 166.234 19.9065 166.999C19.3695 167.763 18.5301 168.145 17.3883 168.145C16.261 168.145 15.4264 167.773 14.8846 167.028C14.3427 166.278 14.0621 165.16 14.0427 163.675V161.882C14.0427 160.329 14.3112 159.175 14.8483 158.421C15.3853 157.666 16.2271 157.288 17.3738 157.288C18.5107 157.288 19.3477 157.654 19.8847 158.384C20.4217 159.11 20.6975 160.232 20.712 161.752V163.493ZM19.3695 161.657C19.3695 160.52 19.2098 159.693 18.8905 159.175C18.5712 158.653 18.0656 158.392 17.3738 158.392C16.6867 158.392 16.186 158.65 15.8715 159.168C15.5571 159.686 15.395 160.482 15.3853 161.556V163.704C15.3853 164.846 15.5498 165.69 15.8788 166.237C16.2126 166.778 16.7158 167.049 17.3883 167.049C18.0511 167.049 18.5421 166.793 18.8615 166.28C19.1856 165.767 19.3549 164.959 19.3695 163.856V161.657ZM29.0577 163.493C29.0577 165.066 28.7892 166.234 28.2522 166.999C27.7151 167.763 26.8757 168.145 25.7339 168.145C24.6067 168.145 23.7721 167.773 23.2302 167.028C22.6884 166.278 22.4078 165.16 22.3884 163.675V161.882C22.3884 160.329 22.6569 159.175 23.194 158.421C23.731 157.666 24.5728 157.288 25.7194 157.288C26.8564 157.288 27.6934 157.654 28.2304 158.384C28.7674 159.11 29.0432 160.232 29.0577 161.752V163.493ZM27.7151 161.657C27.7151 160.52 27.5555 159.693 27.2362 159.175C26.9169 158.653 26.4113 158.392 25.7194 158.392C25.0324 158.392 24.5317 158.65 24.2172 159.168C23.9027 159.686 23.7407 160.482 23.731 161.556V163.704C23.731 164.846 23.8955 165.69 24.2245 166.237C24.5583 166.778 25.0615 167.049 25.7339 167.049C26.3968 167.049 26.8878 166.793 27.2071 166.28C27.5313 165.767 27.7006 164.959 27.7151 163.856V161.657Z" fill="#2A365D"/>
<path d="M7.69276 111.064H8.7015C9.33528 111.054 9.83361 110.887 10.1965 110.563C10.5593 110.239 10.7407 109.801 10.7407 109.249C10.7407 108.011 10.1239 107.392 8.89018 107.392C8.30961 107.392 7.84516 107.558 7.49681 107.892C7.15331 108.221 6.98156 108.659 6.98156 109.206H5.63899C5.63899 108.369 5.94379 107.675 6.55339 107.123C7.16782 106.567 7.94676 106.288 8.89018 106.288C9.88682 106.288 10.6682 106.552 11.2342 107.08C11.8003 107.607 12.0833 108.34 12.0833 109.278C12.0833 109.738 11.9333 110.183 11.6334 110.614C11.3382 111.044 10.9343 111.366 10.4214 111.579C11.002 111.763 11.4495 112.068 11.764 112.493C12.0833 112.919 12.243 113.439 12.243 114.054C12.243 115.002 11.9333 115.754 11.3141 116.311C10.6948 116.867 9.88924 117.145 8.89744 117.145C7.90563 117.145 7.09767 116.877 6.47356 116.34C5.85429 115.803 5.54465 115.094 5.54465 114.213H6.89447C6.89447 114.77 7.0759 115.215 7.43876 115.549C7.80161 115.882 8.28784 116.049 8.89744 116.049C9.54574 116.049 10.0416 115.88 10.3851 115.541C10.7287 115.203 10.9004 114.716 10.9004 114.083C10.9004 113.468 10.7117 112.996 10.3343 112.668C9.95698 112.339 9.41269 112.169 8.7015 112.16H7.69276V111.064ZM20.712 112.493C20.712 114.066 20.4435 115.234 19.9065 115.999C19.3695 116.763 18.5301 117.145 17.3883 117.145C16.261 117.145 15.4264 116.773 14.8846 116.028C14.3427 115.278 14.0621 114.16 14.0427 112.675V110.882C14.0427 109.329 14.3112 108.175 14.8483 107.421C15.3853 106.666 16.2271 106.288 17.3738 106.288C18.5107 106.288 19.3477 106.654 19.8847 107.384C20.4217 108.11 20.6975 109.232 20.712 110.752V112.493ZM19.3695 110.657C19.3695 109.52 19.2098 108.693 18.8905 108.175C18.5712 107.653 18.0656 107.392 17.3738 107.392C16.6867 107.392 16.186 107.65 15.8715 108.168C15.5571 108.686 15.395 109.482 15.3853 110.556V112.704C15.3853 113.846 15.5498 114.69 15.8788 115.237C16.2126 115.778 16.7158 116.049 17.3883 116.049C18.0511 116.049 18.5421 115.793 18.8615 115.28C19.1856 114.767 19.3549 113.959 19.3695 112.856V110.657ZM29.0577 112.493C29.0577 114.066 28.7892 115.234 28.2522 115.999C27.7151 116.763 26.8757 117.145 25.7339 117.145C24.6067 117.145 23.7721 116.773 23.2302 116.028C22.6884 115.278 22.4078 114.16 22.3884 112.675V110.882C22.3884 109.329 22.6569 108.175 23.194 107.421C23.731 106.666 24.5728 106.288 25.7194 106.288C26.8564 106.288 27.6934 106.654 28.2304 107.384C28.7674 108.11 29.0432 109.232 29.0577 110.752V112.493ZM27.7151 110.657C27.7151 109.52 27.5555 108.693 27.2362 108.175C26.9169 107.653 26.4113 107.392 25.7194 107.392C25.0324 107.392 24.5317 107.65 24.2172 108.168C23.9027 108.686 23.7407 109.482 23.731 110.556V112.704C23.731 113.846 23.8955 114.69 24.2245 115.237C24.5583 115.778 25.0615 116.049 25.7339 116.049C26.3968 116.049 26.8878 115.793 27.2071 115.28C27.5313 114.767 27.7006 113.959 27.7151 112.856V110.657Z" fill="#2A365D"/>
<path d="M11.4084 61.4513H12.8743V62.5471H11.4084V65H10.0586V62.5471H5.24711V61.7561L9.97875 54.4336H11.4084V61.4513ZM6.7711 61.4513H10.0586V56.2697L9.89892 56.56L6.7711 61.4513ZM20.712 60.4933C20.712 62.0657 20.4435 63.2341 19.9065 63.9985C19.3695 64.7629 18.5301 65.1451 17.3883 65.1451C16.261 65.1451 15.4264 64.7726 14.8846 64.0275C14.3427 63.2776 14.0621 62.16 14.0427 60.6748V58.8823C14.0427 57.3292 14.3112 56.1753 14.8483 55.4206C15.3853 54.6659 16.2271 54.2885 17.3738 54.2885C18.5107 54.2885 19.3477 54.6538 19.8847 55.3843C20.4217 56.11 20.6975 57.2325 20.712 58.7516V60.4933ZM19.3695 58.6573C19.3695 57.5203 19.2098 56.693 18.8905 56.1753C18.5712 55.6528 18.0656 55.3916 17.3738 55.3916C16.6867 55.3916 16.186 55.6504 15.8715 56.1681C15.5571 56.6858 15.395 57.4816 15.3853 58.5557V60.7038C15.3853 61.8456 15.5498 62.6898 15.8788 63.2365C16.2126 63.7784 16.7158 64.0493 17.3883 64.0493C18.0511 64.0493 18.5421 63.7929 18.8615 63.2801C19.1856 62.7672 19.3549 61.9593 19.3695 60.8562V58.6573ZM29.0577 60.4933C29.0577 62.0657 28.7892 63.2341 28.2522 63.9985C27.7151 64.7629 26.8757 65.1451 25.7339 65.1451C24.6067 65.1451 23.7721 64.7726 23.2302 64.0275C22.6884 63.2776 22.4078 62.16 22.3884 60.6748V58.8823C22.3884 57.3292 22.6569 56.1753 23.194 55.4206C23.731 54.6659 24.5728 54.2885 25.7194 54.2885C26.8564 54.2885 27.6934 54.6538 28.2304 55.3843C28.7674 56.11 29.0432 57.2325 29.0577 58.7516V60.4933ZM27.7151 58.6573C27.7151 57.5203 27.5555 56.693 27.2362 56.1753C26.9169 55.6528 26.4113 55.3916 25.7194 55.3916C25.0324 55.3916 24.5317 55.6504 24.2172 56.1681C23.9027 56.6858 23.7407 57.4816 23.731 58.5557V60.7038C23.731 61.8456 23.8955 62.6898 24.2245 63.2365C24.5583 63.7784 25.0615 64.0493 25.7339 64.0493C26.3968 64.0493 26.8878 63.7929 27.2071 63.2801C27.5313 62.7672 27.7006 61.9593 27.7151 60.8562V58.6573Z" fill="#2A365D"/>
<path d="M6.35745 8.7023L6.89447 3.43364H12.3083V4.6746H8.03384L7.71453 7.55568C8.2322 7.25088 8.82003 7.09848 9.47801 7.09848C10.4408 7.09848 11.2052 7.41779 11.7713 8.05642C12.3373 8.69021 12.6203 9.54897 12.6203 10.6327C12.6203 11.7213 12.3252 12.58 11.735 13.209C11.1496 13.8331 10.3295 14.1451 9.27481 14.1451C8.34106 14.1451 7.57906 13.8863 6.98882 13.3686C6.39857 12.851 6.06232 12.1349 5.98008 11.2205H7.25007C7.33232 11.8253 7.54761 12.2825 7.89596 12.5921C8.2443 12.8969 8.70391 13.0493 9.27481 13.0493C9.89892 13.0493 10.3876 12.8364 10.7407 12.4107C11.0988 11.9849 11.2778 11.3971 11.2778 10.6472C11.2778 9.94085 11.0842 9.3748 10.6972 8.94905C10.315 8.51846 9.80458 8.30316 9.16595 8.30316C8.58054 8.30316 8.12093 8.43137 7.7871 8.68779L7.4315 8.97807L6.35745 8.7023ZM20.712 9.49333C20.712 11.0657 20.4435 12.2341 19.9065 12.9985C19.3695 13.7629 18.5301 14.1451 17.3883 14.1451C16.261 14.1451 15.4264 13.7726 14.8846 13.0275C14.3427 12.2776 14.0621 11.16 14.0427 9.67476V7.88225C14.0427 6.32923 14.3112 5.17535 14.8483 4.42061C15.3853 3.66586 16.2271 3.28849 17.3738 3.28849C18.5107 3.28849 19.3477 3.65377 19.8847 4.38432C20.4217 5.11003 20.6975 6.23247 20.712 7.75162V9.49333ZM19.3695 7.65728C19.3695 6.52033 19.2098 5.69302 18.8905 5.17535C18.5712 4.65283 18.0656 4.39158 17.3738 4.39158C16.6867 4.39158 16.186 4.65041 15.8715 5.16809C15.5571 5.68576 15.395 6.48163 15.3853 7.55568V9.70379C15.3853 10.8456 15.5498 11.6898 15.8788 12.2365C16.2126 12.7784 16.7158 13.0493 17.3883 13.0493C18.0511 13.0493 18.5421 12.7929 18.8615 12.2801C19.1856 11.7672 19.3549 10.9593 19.3695 9.85619V7.65728ZM29.0577 9.49333C29.0577 11.0657 28.7892 12.2341 28.2522 12.9985C27.7151 13.7629 26.8757 14.1451 25.7339 14.1451C24.6067 14.1451 23.7721 13.7726 23.2302 13.0275C22.6884 12.2776 22.4078 11.16 22.3884 9.67476V7.88225C22.3884 6.32923 22.6569 5.17535 23.194 4.42061C23.731 3.66586 24.5728 3.28849 25.7194 3.28849C26.8564 3.28849 27.6934 3.65377 28.2304 4.38432C28.7674 5.11003 29.0432 6.23247 29.0577 7.75162V9.49333ZM27.7151 7.65728C27.7151 6.52033 27.5555 5.69302 27.2362 5.17535C26.9169 4.65283 26.4113 4.39158 25.7194 4.39158C25.0324 4.39158 24.5317 4.65041 24.2172 5.16809C23.9027 5.68576 23.7407 6.48163 23.731 7.55568V9.70379C23.731 10.8456 23.8955 11.6898 24.2245 12.2365C24.5583 12.7784 25.0615 13.0493 25.7339 13.0493C26.3968 13.0493 26.8878 12.7929 27.2071 12.2801C27.5313 11.7672 27.7006 10.9593 27.7151 9.85619V7.65728Z" fill="#2A365D"/>
<path d="M122.832 293.771V295.672H124.298V296.71H122.832V301.579C122.832 301.894 122.898 302.131 123.028 302.29C123.159 302.445 123.382 302.523 123.696 302.523C123.851 302.523 124.064 302.494 124.335 302.436V303.524C123.981 303.621 123.638 303.669 123.304 303.669C122.704 303.669 122.252 303.488 121.947 303.125C121.642 302.762 121.49 302.247 121.49 301.579V296.71H120.06V295.672H121.49V293.771H122.832ZM130.721 302.748C130.198 303.362 129.432 303.669 128.42 303.669C127.583 303.669 126.945 303.427 126.505 302.944C126.069 302.455 125.849 301.734 125.844 300.781V295.672H127.187V300.745C127.187 301.935 127.67 302.53 128.638 302.53C129.664 302.53 130.346 302.148 130.685 301.383V295.672H132.027V303.524H130.75L130.721 302.748ZM137.332 303.669C136.268 303.669 135.402 303.321 134.734 302.624C134.066 301.923 133.733 300.987 133.733 299.816V299.569C133.733 298.79 133.88 298.096 134.175 297.486C134.475 296.872 134.891 296.393 135.424 296.049C135.961 295.701 136.541 295.527 137.165 295.527C138.186 295.527 138.979 295.863 139.546 296.536C140.112 297.208 140.395 298.171 140.395 299.424V299.983H135.075C135.095 300.757 135.319 301.383 135.75 301.862C136.186 302.336 136.737 302.573 137.405 302.573C137.879 302.573 138.28 302.477 138.609 302.283C138.938 302.09 139.226 301.833 139.473 301.514L140.293 302.153C139.635 303.164 138.648 303.669 137.332 303.669ZM137.165 296.63C136.623 296.63 136.169 296.828 135.801 297.225C135.433 297.617 135.206 298.168 135.119 298.88H139.052V298.778C139.013 298.096 138.83 297.568 138.501 297.196C138.172 296.819 137.726 296.63 137.165 296.63Z" fill="#2A365D"/>
<path d="M201 301.674L202.509 295.672H203.852L201.566 303.524H200.477L198.569 297.573L196.711 303.524H195.622L193.344 295.672H194.679L196.225 301.55L198.054 295.672H199.135L201 301.674ZM208.482 303.669C207.418 303.669 206.552 303.321 205.884 302.624C205.216 301.923 204.882 300.987 204.882 299.816V299.569C204.882 298.79 205.03 298.096 205.325 297.486C205.625 296.872 206.041 296.393 206.573 296.049C207.11 295.701 207.691 295.527 208.315 295.527C209.336 295.527 210.129 295.863 210.695 296.536C211.261 297.208 211.545 298.171 211.545 299.424V299.983H206.225C206.244 300.757 206.469 301.383 206.9 301.862C207.335 302.336 207.887 302.573 208.555 302.573C209.029 302.573 209.43 302.477 209.759 302.283C210.088 302.09 210.376 301.833 210.623 301.514L211.443 302.153C210.785 303.164 209.798 303.669 208.482 303.669ZM208.315 296.63C207.773 296.63 207.318 296.828 206.951 297.225C206.583 297.617 206.356 298.168 206.269 298.88H210.202V298.778C210.163 298.096 209.979 297.568 209.65 297.196C209.321 296.819 208.876 296.63 208.315 296.63ZM212.778 299.533C212.778 298.328 213.064 297.36 213.635 296.63C214.205 295.895 214.953 295.527 215.877 295.527C216.796 295.527 217.524 295.841 218.061 296.47V292.377H219.404V303.524H218.17L218.105 302.682C217.568 303.34 216.82 303.669 215.863 303.669C214.953 303.669 214.21 303.297 213.635 302.552C213.064 301.807 212.778 300.834 212.778 299.634V299.533ZM214.121 299.685C214.121 300.575 214.305 301.272 214.672 301.775C215.04 302.278 215.548 302.53 216.196 302.53C217.048 302.53 217.67 302.148 218.061 301.383V297.777C217.66 297.036 217.043 296.666 216.211 296.666C215.553 296.666 215.04 296.92 214.672 297.428C214.305 297.936 214.121 298.689 214.121 299.685Z" fill="#2A365D"/>
<path d="M276.874 293.771V295.672H278.34V296.71H276.874V301.579C276.874 301.894 276.939 302.131 277.07 302.29C277.201 302.445 277.423 302.523 277.738 302.523C277.893 302.523 278.105 302.494 278.376 302.436V303.524C278.023 303.621 277.68 303.669 277.346 303.669C276.746 303.669 276.294 303.488 275.989 303.125C275.684 302.762 275.532 302.247 275.532 301.579V296.71H274.102V295.672H275.532V293.771H276.874ZM281.257 296.623C281.853 295.892 282.627 295.527 283.58 295.527C285.239 295.527 286.076 296.463 286.091 298.335V303.524H284.748V298.328C284.743 297.762 284.613 297.344 284.356 297.073C284.105 296.802 283.71 296.666 283.173 296.666C282.738 296.666 282.356 296.782 282.027 297.015C281.698 297.247 281.441 297.552 281.257 297.929V303.524H279.915V292.377H281.257V296.623ZM292.949 302.748C292.426 303.362 291.659 303.669 290.648 303.669C289.811 303.669 289.173 303.427 288.732 302.944C288.297 302.455 288.077 301.734 288.072 300.781V295.672H289.414V300.745C289.414 301.935 289.898 302.53 290.866 302.53C291.892 302.53 292.574 302.148 292.912 301.383V295.672H294.255V303.524H292.978L292.949 302.748Z" fill="#2A365D"/>
<path d="M348.75 303.524V296.71H347.509V295.672H348.75V294.866C348.75 294.025 348.975 293.374 349.425 292.914C349.875 292.455 350.511 292.225 351.333 292.225C351.643 292.225 351.95 292.266 352.255 292.348L352.182 293.437C351.955 293.393 351.713 293.371 351.457 293.371C351.021 293.371 350.685 293.5 350.448 293.756C350.211 294.008 350.092 294.371 350.092 294.845V295.672H351.769V296.71H350.092V303.524H348.75ZM357.052 296.877C356.849 296.843 356.629 296.826 356.392 296.826C355.511 296.826 354.913 297.201 354.599 297.951V303.524H353.256V295.672H354.563L354.584 296.579C355.025 295.878 355.649 295.527 356.457 295.527C356.718 295.527 356.916 295.561 357.052 295.628V296.877ZM359.752 303.524H358.409V295.672H359.752V303.524ZM358.3 293.589C358.3 293.371 358.365 293.188 358.496 293.038C358.632 292.888 358.83 292.813 359.091 292.813C359.352 292.813 359.551 292.888 359.686 293.038C359.822 293.188 359.889 293.371 359.889 293.589C359.889 293.807 359.822 293.988 359.686 294.133C359.551 294.279 359.352 294.351 359.091 294.351C358.83 294.351 358.632 294.279 358.496 294.133C358.365 293.988 358.3 293.807 358.3 293.589Z" fill="#2A365D"/>
<path d="M417.731 301.441C417.731 301.079 417.593 300.798 417.317 300.6C417.046 300.396 416.569 300.222 415.887 300.077C415.21 299.932 414.67 299.758 414.269 299.555C413.872 299.351 413.577 299.109 413.384 298.829C413.195 298.548 413.101 298.214 413.101 297.827C413.101 297.184 413.371 296.64 413.913 296.194C414.46 295.749 415.157 295.527 416.003 295.527C416.894 295.527 417.614 295.757 418.166 296.216C418.722 296.676 419.001 297.264 419.001 297.98H417.651C417.651 297.612 417.493 297.295 417.179 297.029C416.869 296.763 416.477 296.63 416.003 296.63C415.515 296.63 415.133 296.736 414.857 296.949C414.581 297.162 414.443 297.44 414.443 297.784C414.443 298.108 414.571 298.352 414.828 298.517C415.084 298.681 415.546 298.838 416.214 298.988C416.886 299.138 417.431 299.317 417.847 299.525C418.263 299.734 418.57 299.985 418.768 300.28C418.972 300.571 419.073 300.926 419.073 301.347C419.073 302.049 418.793 302.612 418.231 303.038C417.67 303.459 416.942 303.669 416.047 303.669C415.418 303.669 414.862 303.558 414.378 303.335C413.894 303.113 413.514 302.803 413.238 302.407C412.967 302.005 412.832 301.572 412.832 301.108H414.175C414.199 301.557 414.378 301.916 414.712 302.182C415.05 302.443 415.495 302.573 416.047 302.573C416.555 302.573 416.961 302.472 417.266 302.269C417.576 302.061 417.731 301.785 417.731 301.441ZM425.67 303.524C425.592 303.369 425.53 303.094 425.481 302.697C424.857 303.345 424.112 303.669 423.246 303.669C422.472 303.669 421.836 303.452 421.337 303.016C420.844 302.576 420.597 302.02 420.597 301.347C420.597 300.529 420.907 299.896 421.526 299.446C422.15 298.991 423.026 298.764 424.153 298.764H425.459V298.147C425.459 297.677 425.319 297.305 425.038 297.029C424.758 296.748 424.344 296.608 423.798 296.608C423.319 296.608 422.917 296.729 422.593 296.971C422.269 297.213 422.107 297.506 422.107 297.849H420.757C420.757 297.457 420.895 297.08 421.17 296.717C421.451 296.349 421.828 296.059 422.303 295.846C422.782 295.633 423.306 295.527 423.877 295.527C424.782 295.527 425.491 295.754 426.004 296.209C426.517 296.659 426.783 297.281 426.802 298.074V301.688C426.802 302.409 426.894 302.982 427.078 303.408V303.524H425.67ZM423.442 302.501C423.863 302.501 424.262 302.392 424.639 302.174C425.017 301.957 425.29 301.674 425.459 301.325V299.714H424.407C422.762 299.714 421.94 300.196 421.94 301.158C421.94 301.579 422.08 301.908 422.361 302.145C422.641 302.382 423.002 302.501 423.442 302.501ZM430.728 293.771V295.672H432.194V296.71H430.728V301.579C430.728 301.894 430.793 302.131 430.924 302.29C431.055 302.445 431.277 302.523 431.592 302.523C431.746 302.523 431.959 302.494 432.23 302.436V303.524C431.877 303.621 431.534 303.669 431.2 303.669C430.6 303.669 430.147 303.488 429.843 303.125C429.538 302.762 429.385 302.247 429.385 301.579V296.71H427.956V295.672H429.385V293.771H430.728Z" fill="#2A365D"/>
<path d="M490.767 301.441C490.767 301.079 490.629 300.798 490.354 300.6C490.083 300.396 489.606 300.222 488.924 300.077C488.247 299.932 487.707 299.758 487.306 299.555C486.909 299.351 486.614 299.109 486.42 298.829C486.231 298.548 486.137 298.214 486.137 297.827C486.137 297.184 486.408 296.64 486.95 296.194C487.497 295.749 488.193 295.527 489.04 295.527C489.93 295.527 490.651 295.757 491.203 296.216C491.759 296.676 492.037 297.264 492.037 297.98H490.687C490.687 297.612 490.53 297.295 490.216 297.029C489.906 296.763 489.514 296.63 489.04 296.63C488.551 296.63 488.169 296.736 487.893 296.949C487.618 297.162 487.48 297.44 487.48 297.784C487.48 298.108 487.608 298.352 487.864 298.517C488.121 298.681 488.583 298.838 489.25 298.988C489.923 299.138 490.467 299.317 490.883 299.525C491.299 299.734 491.607 299.985 491.805 300.28C492.008 300.571 492.11 300.926 492.11 301.347C492.11 302.049 491.829 302.612 491.268 303.038C490.707 303.459 489.979 303.669 489.084 303.669C488.455 303.669 487.898 303.558 487.414 303.335C486.931 303.113 486.551 302.803 486.275 302.407C486.004 302.005 485.869 301.572 485.869 301.108H487.211C487.235 301.557 487.414 301.916 487.748 302.182C488.087 302.443 488.532 302.573 489.084 302.573C489.592 302.573 489.998 302.472 490.303 302.269C490.612 302.061 490.767 301.785 490.767 301.441ZM498.706 302.748C498.184 303.362 497.417 303.669 496.406 303.669C495.569 303.669 494.93 303.427 494.49 302.944C494.055 302.455 493.835 301.734 493.83 300.781V295.672H495.172V300.745C495.172 301.935 495.656 302.53 496.624 302.53C497.649 302.53 498.332 302.148 498.67 301.383V295.672H500.013V303.524H498.735L498.706 302.748ZM503.329 295.672L503.373 296.659C503.973 295.904 504.756 295.527 505.724 295.527C507.384 295.527 508.221 296.463 508.235 298.335V303.524H506.892V298.328C506.888 297.762 506.757 297.344 506.501 297.073C506.249 296.802 505.855 296.666 505.318 296.666C504.882 296.666 504.5 296.782 504.171 297.015C503.842 297.247 503.586 297.552 503.402 297.929V303.524H502.059V295.672H503.329Z" fill="#2A365D"/>
<path d="M52.7427 265.573H499.763" stroke="#74B2EA" stroke-opacity="0.32" stroke-width="1.14328"/>
<path d="M52.7787 214.126H499.799" stroke="#74B2EA" stroke-opacity="0.32" stroke-width="1.14328"/>
<path d="M52.7427 162.679H499.763" stroke="#74B2EA" stroke-opacity="0.32" stroke-width="1.14328"/>
<path d="M52.7424 111.231H499.763" stroke="#74B2EA" stroke-opacity="0.32" stroke-width="1.14328"/>
<path d="M52.7424 59.7838H499.763" stroke="#74B2EA" stroke-opacity="0.32" stroke-width="1.14328"/>
<path d="M52.7424 8.33643H499.763" stroke="#74B2EA" stroke-opacity="0.32" stroke-width="1.14328"/>
<g filter="url(#filter0_d_30:134)">
<path d="M139.223 188.058C139.223 191.549 136.393 194.379 132.902 194.379C129.411 194.379 126.581 191.549 126.581 188.058C126.581 184.567 129.411 181.737 132.902 181.737C136.393 181.737 139.223 184.567 139.223 188.058Z" fill="#74B2EA"/>
</g>
<g opacity="0.3" filter="url(#filter1_f_30:134)">
<path fill-rule="evenodd" clip-rule="evenodd" d="M120.079 156.601H160.478C163.004 156.601 165.051 158.649 165.051 161.174V172.445C165.051 174.971 163.004 177.018 160.478 177.018H145.413L144.672 177.617C144.504 177.752 144.265 177.752 144.097 177.617L143.356 177.018H120.079C117.554 177.018 115.506 174.971 115.506 172.445V161.174C115.506 158.649 117.554 156.601 120.079 156.601Z" fill="#2A365D"/>
</g>
<path fill-rule="evenodd" clip-rule="evenodd" d="M108.527 145.85H156.545C159.071 145.85 161.118 147.898 161.118 150.423V166.429C161.118 168.955 159.071 171.002 156.545 171.002L140.539 171.002L132.834 177.607C132.663 177.754 132.41 177.754 132.239 177.607L124.533 171.002L108.527 171.002C106.002 171.002 103.954 168.955 103.954 166.429V150.423C103.954 147.898 106.002 145.85 108.527 145.85Z" fill="white"/>
<path d="M121.697 154.461V152.962H124.863V162.853H123.182V154.461H121.697ZM130.242 152.654C130.896 152.654 131.457 152.771 131.924 153.004C132.391 153.228 132.741 153.541 132.974 153.943C133.217 154.344 133.339 154.793 133.339 155.288C133.339 155.914 133.161 156.437 132.806 156.857C132.461 157.268 131.97 157.515 131.335 157.599V157.669C132.017 157.866 132.549 158.16 132.932 158.552C133.325 158.935 133.521 159.467 133.521 160.149C133.521 160.98 133.245 161.658 132.694 162.181C132.143 162.694 131.354 162.951 130.327 162.951C129.271 162.951 128.421 162.685 127.777 162.153C127.132 161.611 126.763 160.812 126.67 159.757H128.253C128.309 160.317 128.51 160.766 128.855 161.102C129.201 161.429 129.668 161.592 130.256 161.592C130.808 161.592 131.228 161.447 131.517 161.158C131.816 160.868 131.966 160.495 131.966 160.037C131.966 159.486 131.751 159.066 131.321 158.776C130.901 158.487 130.289 158.342 129.486 158.342H129.108V157.025H129.486C131.008 157.044 131.77 156.525 131.77 155.47C131.77 155.012 131.629 154.653 131.349 154.391C131.069 154.13 130.686 153.999 130.2 153.999C129.715 153.999 129.308 154.148 128.982 154.447C128.655 154.737 128.459 155.162 128.393 155.722H126.824C126.889 154.751 127.216 153.999 127.805 153.466C128.393 152.925 129.206 152.654 130.242 152.654ZM142.166 154.223H137.276V157.165C137.501 156.876 137.818 156.647 138.229 156.479C138.64 156.301 139.093 156.212 139.588 156.212C140.279 156.212 140.854 156.362 141.311 156.661C141.769 156.95 142.105 157.338 142.32 157.824C142.544 158.309 142.656 158.846 142.656 159.435C142.656 160.471 142.367 161.312 141.788 161.957C141.209 162.592 140.368 162.909 139.266 162.909C138.229 162.909 137.393 162.634 136.758 162.083C136.123 161.532 135.777 160.798 135.721 159.883H137.29C137.375 160.387 137.58 160.784 137.907 161.074C138.243 161.363 138.668 161.508 139.182 161.508C139.817 161.508 140.293 161.317 140.611 160.934C140.928 160.551 141.087 160.042 141.087 159.407C141.087 158.809 140.924 158.342 140.597 158.006C140.27 157.66 139.803 157.487 139.196 157.487C138.766 157.487 138.388 157.581 138.061 157.768C137.743 157.954 137.51 158.202 137.361 158.51H135.805V152.808H142.166V154.223Z" fill="#2A365D"/>
<g filter="url(#filter2_d_30:134)">
<path d="M216.244 138.386C216.244 141.877 213.414 144.707 209.923 144.707C206.432 144.707 203.602 141.877 203.602 138.386C203.602 134.895 206.432 132.065 209.923 132.065C213.414 132.065 216.244 134.895 216.244 138.386Z" fill="#74B2EA"/>
</g>
<g opacity="0.3" filter="url(#filter3_f_30:134)">
<path fill-rule="evenodd" clip-rule="evenodd" d="M197.1 106.929H237.499C240.024 106.929 242.072 108.976 242.072 111.502V122.773C242.072 125.298 240.024 127.346 237.499 127.346H222.433L221.692 127.944C221.524 128.08 221.285 128.08 221.117 127.944L220.376 127.346H197.1C194.574 127.346 192.527 125.298 192.527 122.773V111.502C192.527 108.976 194.574 106.929 197.1 106.929Z" fill="#2A365D"/>
</g>
<path fill-rule="evenodd" clip-rule="evenodd" d="M185.548 96.178H233.566C236.091 96.178 238.139 98.2255 238.139 100.751V116.757C238.139 119.283 236.091 121.33 233.566 121.33L217.56 121.33L209.854 127.935C209.683 128.081 209.43 128.081 209.259 127.935L201.554 121.33L185.548 121.33C183.022 121.33 180.975 119.283 180.975 116.757V100.751C180.975 98.2255 183.022 96.178 185.548 96.178Z" fill="white"/>
<path d="M199.205 111.934C200.718 110.897 201.928 109.884 202.834 108.894C203.749 107.894 204.206 106.97 204.206 106.12C204.206 105.616 204.08 105.214 203.828 104.915C203.585 104.616 203.188 104.467 202.637 104.467C202.068 104.467 201.638 104.654 201.348 105.027C201.059 105.391 200.895 105.914 200.858 106.596H199.303C199.368 105.466 199.714 104.602 200.34 104.004C200.975 103.407 201.783 103.108 202.763 103.108C203.725 103.108 204.477 103.365 205.019 103.878C205.57 104.383 205.846 105.083 205.846 105.98C205.846 106.699 205.622 107.427 205.173 108.165C204.734 108.903 204.174 109.585 203.492 110.211C202.81 110.827 202.105 111.36 201.376 111.808H206.07V113.111H199.205V111.934ZM207.313 111.051V109.706L212.23 103.206H213.939V109.65H215.326V111.051H213.939V113.181H212.328V111.051H207.313ZM212.44 105.111L208.966 109.65H212.44V105.111ZM216.126 104.789V103.29H219.292V113.181H217.611V104.789H216.126Z" fill="#2A365D"/>
<g filter="url(#filter4_d_30:134)">
<path d="M362.318 58.6906C362.318 62.1816 359.488 65.0116 355.997 65.0116C352.506 65.0116 349.676 62.1816 349.676 58.6906C349.676 55.1995 352.506 52.3695 355.997 52.3695C359.488 52.3695 362.318 55.1995 362.318 58.6906Z" fill="#74B2EA"/>
</g>
<g opacity="0.3" filter="url(#filter5_f_30:134)">
<path fill-rule="evenodd" clip-rule="evenodd" d="M343.174 27.2338H383.573C386.098 27.2338 388.146 29.2812 388.146 31.8069V43.0775C388.146 45.6031 386.098 47.6506 383.573 47.6506H368.507L367.766 48.2491C367.598 48.3845 367.359 48.3845 367.191 48.2491L366.45 47.6506H343.174C340.648 47.6506 338.601 45.6031 338.601 43.0775V31.8069C338.601 29.2812 340.648 27.2338 343.174 27.2338Z" fill="#2A365D"/>
</g>
<path fill-rule="evenodd" clip-rule="evenodd" d="M331.622 16.4827H379.639C382.165 16.4827 384.213 18.5302 384.213 21.0558V37.0617C384.213 39.5873 382.165 41.6348 379.639 41.6348L363.634 41.6348L355.928 48.2393C355.757 48.3861 355.504 48.3861 355.333 48.2393L347.628 41.6348H331.622C329.096 41.6348 327.049 39.5873 327.049 37.0617V21.0558C327.049 18.5302 329.096 16.4827 331.622 16.4827Z" fill="white"/>
<path d="M342.603 31.3561V30.0111L347.52 23.5105H349.229V29.9551H350.616V31.3561H349.229V33.4856H347.618V31.3561H342.603ZM347.73 25.4159L344.256 29.9551H347.73V25.4159ZM351.962 28.47C351.962 30.0485 352.243 31.2861 352.803 32.1827C353.363 33.07 354.297 33.5136 355.605 33.5136C356.913 33.5136 357.847 33.0653 358.407 32.1687C358.967 31.272 359.248 30.0392 359.248 28.47C359.248 26.9103 358.967 25.6867 358.407 24.7994C357.847 23.9028 356.913 23.4545 355.605 23.4545C354.297 23.4545 353.363 23.8981 352.803 24.7854C352.243 25.6727 351.962 26.9009 351.962 28.47ZM357.651 28.47C357.651 29.6095 357.51 30.4828 357.23 31.0899C356.95 31.697 356.408 32.0006 355.605 32.0006C354.793 32.0006 354.246 31.697 353.966 31.0899C353.686 30.4828 353.546 29.6095 353.546 28.47C353.546 27.3399 353.686 26.476 353.966 25.8782C354.246 25.2804 354.793 24.9816 355.605 24.9816C356.408 24.9816 356.95 25.2851 357.23 25.8922C357.51 26.49 357.651 27.3492 357.651 28.47ZM360.92 28.47C360.92 30.0485 361.2 31.2861 361.761 32.1827C362.321 33.07 363.255 33.5136 364.563 33.5136C365.87 33.5136 366.804 33.0653 367.365 32.1687C367.925 31.272 368.205 30.0392 368.205 28.47C368.205 26.9103 367.925 25.6867 367.365 24.7994C366.804 23.9028 365.87 23.4545 364.563 23.4545C363.255 23.4545 362.321 23.8981 361.761 24.7854C361.2 25.6727 360.92 26.9009 360.92 28.47ZM366.608 28.47C366.608 29.6095 366.468 30.4828 366.188 31.0899C365.908 31.697 365.366 32.0006 364.563 32.0006C363.75 32.0006 363.204 31.697 362.923 31.0899C362.643 30.4828 362.503 29.6095 362.503 28.47C362.503 27.3399 362.643 26.476 362.923 25.8782C363.204 25.2804 363.75 24.9816 364.563 24.9816C365.366 24.9816 365.908 25.2851 366.188 25.8922C366.468 26.49 366.608 27.3492 366.608 28.47Z" fill="#2A365D"/>
<path d="M51.9065 264.966C51.4705 265.423 51.4874 266.146 51.9442 266.582C52.4009 267.018 53.1246 267.001 53.5605 266.545L51.9065 264.966ZM287.347 216.182C294.68 216.182 300.585 213.61 305.341 209.12C310.067 204.658 313.618 198.342 316.378 190.892C321.892 176.01 324.38 156.231 326.529 136.623C328.687 116.933 330.504 97.4232 334.627 82.8133C336.687 75.512 339.292 69.5549 342.715 65.4399C346.102 61.3686 350.282 59.1025 355.629 59.1025V56.816C349.511 56.816 344.717 59.4587 340.957 63.9776C337.234 68.4529 334.521 74.7675 332.426 82.1924C328.238 97.0348 326.402 116.794 324.256 136.374C322.101 156.037 319.633 175.527 314.234 190.098C311.538 197.374 308.143 203.33 303.771 207.458C299.428 211.558 294.081 213.895 287.347 213.895V216.182ZM355.629 59.1025C366.291 59.1025 372.906 62.2799 377.612 66.9478C382.385 71.6823 385.279 78.0185 388.34 84.6071C391.366 91.1189 394.552 97.866 399.943 102.946C405.392 108.082 412.994 111.435 424.685 111.435V109.148C413.486 109.148 406.474 105.959 401.511 101.282C396.49 96.5506 393.467 90.2147 390.414 83.6435C387.396 77.1491 384.341 70.4023 379.222 65.3245C374.036 60.1801 366.816 56.816 355.629 56.816V59.1025ZM424.685 111.435C447.008 111.435 458.578 124.045 468.054 136.967C472.758 143.381 477.032 150.009 481.789 154.957C486.594 159.955 492.061 163.433 499.267 163.433V161.146C492.916 161.146 488.005 158.124 483.437 153.373C478.821 148.571 474.728 142.2 469.898 135.614C460.307 122.536 448.142 109.148 424.685 109.148V111.435ZM210.215 138.773C218.901 138.773 225.775 143.344 231.817 150.464C237.879 157.608 242.971 167.165 248.108 176.869C253.213 186.513 258.364 196.307 264.501 203.675C270.656 211.064 277.943 216.182 287.347 216.182V213.895C278.898 213.895 272.193 209.337 266.258 202.211C260.305 195.065 255.268 185.507 250.129 175.799C245.022 166.151 239.814 156.355 233.561 148.985C227.287 141.591 219.832 136.486 210.215 136.486V138.773ZM53.5605 266.545C57.7796 262.124 62.5073 255.056 67.7647 247.069C73.049 239.04 78.9103 230.014 85.4505 221.53C98.5884 204.488 114.168 190.04 132.798 190.04V187.754C112.976 187.754 96.7889 203.077 83.6396 220.134C77.0363 228.7 71.1241 237.806 65.8547 245.812C60.5584 253.858 55.952 260.727 51.9065 264.966L53.5605 266.545ZM132.798 190.04C145.548 190.04 154.656 186.775 161.682 181.821C168.68 176.887 173.536 170.328 177.858 163.901C182.219 157.416 185.985 151.161 190.885 146.465C195.713 141.838 201.61 138.773 210.215 138.773V136.486C200.952 136.486 194.505 139.829 189.303 144.814C184.172 149.731 180.218 156.294 175.96 162.625C171.663 169.016 166.999 175.274 160.364 179.952C153.758 184.61 145.12 187.754 132.798 187.754V190.04Z" fill="#74B2EA"/>
<defs>
<filter id="filter0_d_30:134" x="124.294" y="180.594" width="17.2152" height="17.2153" filterUnits="userSpaceOnUse" color-interpolation-filters="sRGB">
<feFlood flood-opacity="0" result="BackgroundImageFix"/>
<feColorMatrix in="SourceAlpha" type="matrix" values="0 0 0 0 0 0 0 0 0 0 0 0 0 0 0 0 0 0 127 0" result="hardAlpha"/>
<feOffset dy="1.14328"/>
<feGaussianBlur stdDeviation="1.14328"/>
<feColorMatrix type="matrix" values="0 0 0 0 0.215686 0 0 0 0 0.317647 0 0 0 0 1 0 0 0 0.2 0"/>
<feBlend mode="normal" in2="BackgroundImageFix" result="effect1_dropShadow_30:134"/>
<feBlend mode="normal" in="SourceGraphic" in2="effect1_dropShadow_30:134" result="shape"/>
</filter>
<filter id="filter1_f_30:134" x="92.6407" y="133.736" width="95.2761" height="66.8479" filterUnits="userSpaceOnUse" color-interpolation-filters="sRGB">
<feFlood flood-opacity="0" result="BackgroundImageFix"/>
<feBlend mode="normal" in="SourceGraphic" in2="BackgroundImageFix" result="shape"/>
<feGaussianBlur stdDeviation="11.4328" result="effect1_foregroundBlur_30:134"/>
</filter>
<filter id="filter2_d_30:134" x="201.315" y="130.921" width="17.2152" height="17.2153" filterUnits="userSpaceOnUse" color-interpolation-filters="sRGB">
<feFlood flood-opacity="0" result="BackgroundImageFix"/>
<feColorMatrix in="SourceAlpha" type="matrix" values="0 0 0 0 0 0 0 0 0 0 0 0 0 0 0 0 0 0 127 0" result="hardAlpha"/>
<feOffset dy="1.14328"/>
<feGaussianBlur stdDeviation="1.14328"/>
<feColorMatrix type="matrix" values="0 0 0 0 0.215686 0 0 0 0 0.317647 0 0 0 0 1 0 0 0 0.2 0"/>
<feBlend mode="normal" in2="BackgroundImageFix" result="effect1_dropShadow_30:134"/>
<feBlend mode="normal" in="SourceGraphic" in2="effect1_dropShadow_30:134" result="shape"/>
</filter>
<filter id="filter3_f_30:134" x="169.661" y="84.0635" width="95.2761" height="66.8479" filterUnits="userSpaceOnUse" color-interpolation-filters="sRGB">
<feFlood flood-opacity="0" result="BackgroundImageFix"/>
<feBlend mode="normal" in="SourceGraphic" in2="BackgroundImageFix" result="shape"/>
<feGaussianBlur stdDeviation="11.4328" result="effect1_foregroundBlur_30:134"/>
</filter>
<filter id="filter4_d_30:134" x="347.389" y="51.2262" width="17.2152" height="17.2153" filterUnits="userSpaceOnUse" color-interpolation-filters="sRGB">
<feFlood flood-opacity="0" result="BackgroundImageFix"/>
<feColorMatrix in="SourceAlpha" type="matrix" values="0 0 0 0 0 0 0 0 0 0 0 0 0 0 0 0 0 0 127 0" result="hardAlpha"/>
<feOffset dy="1.14328"/>
<feGaussianBlur stdDeviation="1.14328"/>
<feColorMatrix type="matrix" values="0 0 0 0 0.215686 0 0 0 0 0.317647 0 0 0 0 1 0 0 0 0.2 0"/>
<feBlend mode="normal" in2="BackgroundImageFix" result="effect1_dropShadow_30:134"/>
<feBlend mode="normal" in="SourceGraphic" in2="effect1_dropShadow_30:134" result="shape"/>
</filter>
<filter id="filter5_f_30:134" x="315.735" y="4.36826" width="95.2759" height="66.8479" filterUnits="userSpaceOnUse" color-interpolation-filters="sRGB">
<feFlood flood-opacity="0" result="BackgroundImageFix"/>
<feBlend mode="normal" in="SourceGraphic" in2="BackgroundImageFix" result="shape"/>
<feGaussianBlur stdDeviation="11.4328" result="effect1_foregroundBlur_30:134"/>
</filter>
</defs>
</svg>
