<svg width="29" height="21" viewBox="0 0 29 21" fill="none" xmlns="http://www.w3.org/2000/svg">
<path d="M4.89339 10.9766L2.71281 10.9766L4.25471 12.5186L10.4154 18.6792C10.5754 18.8392 10.5754 19.0985 10.4154 19.2585C10.2555 19.4184 9.99606 19.4184 9.83618 19.2585L1.43442 10.8567C1.27444 10.6967 1.27444 10.4375 1.43442 10.2775L0.795744 9.63881L1.43443 10.2775L9.83571 1.87599C9.91617 1.79559 10.0197 1.75579 10.1256 1.75579C10.2316 1.75579 10.3351 1.79566 10.4153 1.87586C10.5752 2.03585 10.5751 2.29501 10.4152 2.45495L10.4152 2.45496L4.2547 8.61566L2.71286 10.1575L4.89339 10.1576L27.3318 10.1576C27.5578 10.1576 27.7413 10.341 27.7413 10.5671C27.7413 10.7932 27.5579 10.9766 27.3318 10.9766L4.89339 10.9766Z" fill="#A91938" stroke="#A91938" stroke-width="1.80645"/>
</svg>
