<svg width="29" height="21" viewBox="0 0 29 21" fill="none" xmlns="http://www.w3.org/2000/svg">
<path d="M24.5055 10.1571H26.6861L25.1442 8.61515L18.9835 2.45445C18.8235 2.29447 18.8235 2.03521 18.9835 1.87523C19.1434 1.71535 19.4029 1.71535 19.5627 1.87523L27.9645 10.277C28.1245 10.437 28.1245 10.6962 27.9645 10.8562L28.6032 11.4949L27.9645 10.8562L19.5632 19.2577C19.4828 19.3381 19.3793 19.3779 19.2733 19.3779C19.1673 19.3779 19.0638 19.338 18.9836 19.2578C18.8237 19.0978 18.8238 18.8387 18.9837 18.6787L18.9837 18.6787L25.1442 12.518L26.6861 10.9762H24.5055H2.06717C1.84109 10.9762 1.65762 10.7927 1.65762 10.5666C1.65762 10.3405 1.84104 10.1571 2.06717 10.1571H24.5055Z" fill="#A91938" stroke="#A91938" stroke-width="1.80645"/>
</svg>
