<svg width="46" height="38" viewBox="0 0 46 38" fill="none" xmlns="http://www.w3.org/2000/svg">
<path d="M43.6514 6.48587L23.4848 0.741923C22.9673 0.594327 22.4078 0.594327 21.8903 0.741923L1.77446 6.47151L1.76375 6.47438L1.72383 6.48587C1.68707 6.49628 1.65199 6.50885 1.61628 6.52051C1.52156 6.55119 1.4291 6.58674 1.3394 6.62696C1.31462 6.63827 1.29067 6.65083 1.2663 6.66286C1.2245 6.68332 1.18332 6.70414 1.1432 6.72676C1.12009 6.7395 1.09782 6.75279 1.07535 6.76625C1.03403 6.79102 0.99377 6.81675 0.954557 6.84343C0.935651 6.85636 0.916534 6.86892 0.897838 6.8822C0.851063 6.91595 0.805898 6.95107 0.762343 6.98757C0.75289 6.99547 0.743017 7.00265 0.733774 7.01055C0.681676 7.05542 0.63196 7.10209 0.584624 7.15055C0.57139 7.1642 0.559416 7.17874 0.546391 7.19256C0.513831 7.22774 0.48211 7.26346 0.45228 7.30026C0.435685 7.32036 0.419929 7.341 0.404384 7.36182C0.379876 7.39413 0.356418 7.4271 0.334011 7.46073C0.318676 7.48352 0.303341 7.50614 0.289056 7.52947C0.266789 7.56555 0.246622 7.60271 0.226665 7.64005C0.215742 7.66069 0.203558 7.68079 0.193474 7.70179C0.166375 7.75708 0.142427 7.81362 0.121 7.87106C0.112177 7.89439 0.105035 7.91863 0.0972622 7.94232C0.0841451 7.98122 0.0723068 8.02043 0.0617606 8.05989C0.0444722 8.12721 0.0309423 8.1952 0.021217 8.26362C0.0178559 8.28588 0.0140746 8.30796 0.0117639 8.3304C0.00462148 8.39609 0 8.46233 0 8.52928V22.8892C9.96243e-09 23.4604 0.265588 24.0083 0.738336 24.4122C1.21108 24.8162 1.85227 25.0431 2.52084 25.0431C3.1894 25.0431 3.83059 24.8162 4.30334 24.4122C4.77609 24.0083 5.04167 23.4604 5.04167 22.8892V11.5177L10.0235 12.9367C8.48502 15.4535 8.02328 18.3504 8.71797 21.1271C9.41266 23.9039 11.2202 26.3862 13.8285 28.1456C10.2575 29.5653 7.22581 31.8145 5.07949 34.6362C4.89866 34.8732 4.77421 35.1383 4.71327 35.4163C4.65232 35.6943 4.65606 35.9799 4.72428 36.2567C4.79249 36.5335 4.92384 36.7961 5.11084 37.0296C5.29783 37.263 5.5368 37.4627 5.8141 37.6172C6.0914 37.7717 6.40161 37.878 6.727 37.9301C7.0524 37.9822 7.38661 37.979 7.71056 37.9207C8.03451 37.8624 8.34185 37.7502 8.61503 37.5904C8.88822 37.4306 9.1219 37.2264 9.30273 36.9895C10.7531 35.0853 12.737 33.5206 15.0744 32.4375C17.4117 31.3544 20.0286 30.7871 22.6875 30.7871C25.3465 30.7871 27.9633 31.3544 30.3007 32.4375C32.6381 33.5206 34.6219 35.0853 36.0723 36.9895C36.4375 37.468 37.0103 37.8029 37.6645 37.9206C38.3187 38.0383 39.0009 37.9291 39.5609 37.6171C40.1209 37.305 40.5129 36.8157 40.6506 36.2566C40.7884 35.6976 40.6606 35.1148 40.2954 34.6362C38.1491 31.8145 35.1174 29.5654 31.5466 28.1456C34.1549 26.3862 35.9624 23.9039 36.6571 21.1271C37.3518 18.3504 36.89 15.4535 35.3516 12.9367L43.6514 10.5727C44.1533 10.4297 44.5899 10.1554 44.8992 9.78869C45.2085 9.42195 45.375 8.98134 45.375 8.52928C45.375 8.07722 45.2085 7.63661 44.8992 7.26987C44.5899 6.90313 44.1533 6.62885 43.6514 6.48587ZM22.6875 5.05599L34.8827 8.52928L30.5326 9.76818L30.5259 9.77015L22.6875 12.0028L14.8492 9.77015L14.8431 9.76836L10.4926 8.52928L22.6875 5.05599ZM31.9306 18.5812C31.9309 19.8079 31.5967 21.0178 30.9546 22.115C30.3125 23.2121 29.3801 24.1664 28.2314 24.9022C27.0826 25.6379 25.7491 26.1349 24.3365 26.3538C22.9239 26.5726 21.4711 26.5073 20.0932 26.163C18.7152 25.8187 17.4501 25.2048 16.3981 24.3701C15.3461 23.5354 14.5361 22.5028 14.0323 21.3541C13.5285 20.2054 13.3448 18.9722 13.4957 17.7523C13.6466 16.5324 14.128 15.3593 14.9017 14.326L21.8903 16.3166C22.4078 16.4641 22.9673 16.4641 23.4848 16.3166L30.4734 14.326C31.426 15.5959 31.9318 17.0728 31.9306 18.5812Z" fill="#2A365D"/>
</svg>
