<svg width="45" height="36" viewBox="0 0 45 36" fill="none" xmlns="http://www.w3.org/2000/svg">
<path d="M43 24.2847C43 29.4129 38.4111 33.57 32.75 33.57C30.9152 33.57 29.1912 33.1335 27.7008 32.3675C26.1225 31.5571 24.8096 30.382 23.8959 28.9621C22.9823 27.5422 22.5006 25.9282 22.5 24.2847C22.5 21.9002 23.4922 19.7256 25.122 18.0821C26.0823 17.1108 27.2581 16.3342 28.5726 15.8029C29.8871 15.2717 31.3106 14.9979 32.75 14.9994C38.4111 14.9994 43 19.1564 43 24.2847Z" stroke="#07972F" stroke-width="4" stroke-linecap="round" stroke-linejoin="round"/>
<path d="M32.75 6.6427V14.9995C31.3106 14.998 29.8871 15.2718 28.5726 15.803C27.2581 16.3342 26.0823 17.1109 25.122 18.0822C23.4305 19.7844 22.4963 21.9945 22.5 24.2848C22.5006 25.9283 22.9823 27.5423 23.8959 28.9622C24.8096 30.3821 26.1225 31.5572 27.7008 32.3676C24.9723 33.1151 21.3499 33.5701 17.375 33.5701C8.8839 33.5701 2 31.4911 2 28.9274V6.6427" stroke="#07972F" stroke-width="4" stroke-linecap="round" stroke-linejoin="round"/>
<path d="M32.75 6.64267C32.75 9.20636 25.8661 11.2853 17.375 11.2853C8.8839 11.2853 2 9.20636 2 6.64267C2 4.07899 8.8839 2 17.375 2C25.8661 2 32.75 4.07899 32.75 6.64267Z" stroke="#07972F" stroke-width="4" stroke-linecap="round" stroke-linejoin="round"/>
<path d="M2 21.4993C2 24.0629 8.88389 26.1419 17.375 26.1419C19.2272 26.1419 21.0035 26.0435 22.6476 25.8615" stroke="#07972F" stroke-width="4" stroke-linecap="round" stroke-linejoin="round"/>
<path d="M2 14.071C2 16.6346 8.8839 18.7135 17.375 18.7135C20.1999 18.7135 22.8475 18.4833 25.1219 18.0821" stroke="#07972F" stroke-width="4" stroke-linecap="round" stroke-linejoin="round"/>
<path d="M37.3625 22.4277L31.725 27.5345L28.65 24.749" stroke="#07972F" stroke-width="4" stroke-linecap="round" stroke-linejoin="round"/>
</svg>
