<svg width="602" height="473" viewBox="0 0 602 473" fill="none" xmlns="http://www.w3.org/2000/svg">
<path d="M318.157 468.783C396.608 468.783 460.205 405.186 460.205 326.735C460.205 248.284 396.608 184.687 318.157 184.687C239.706 184.687 176.109 248.284 176.109 326.735C176.109 405.186 239.706 468.783 318.157 468.783Z" fill="#F9F5E8"/>
<path d="M459.952 284.096C538.403 284.096 602 220.499 602 142.048C602 63.597 538.403 0 459.952 0C381.501 0 317.904 63.597 317.904 142.048C317.904 220.499 381.501 284.096 459.952 284.096Z" fill="#E9F4F7"/>
<path d="M410.5 25.7351C312.82 25.7351 233.635 104.921 233.635 202.601C233.635 300.281 312.82 379.467 410.5 379.467C508.181 379.467 587.366 300.281 587.366 202.601C587.366 104.921 508.181 25.7351 410.5 25.7351ZM410.5 27.7536C507.066 27.7536 585.348 106.035 585.348 202.601C585.348 299.167 507.066 377.448 410.5 377.448C313.935 377.448 235.653 299.167 235.653 202.601C235.653 106.035 313.935 27.7536 410.5 27.7536Z" fill="#E8DDFF"/>
<path fill-rule="evenodd" clip-rule="evenodd" d="M224.29 205.884C217.73 197.801 213.862 192.163 212.684 188.971C210.918 184.183 194.063 167.004 187.673 148.084C181.082 140.267 176.621 135.487 174.291 133.745C170.796 131.131 169.713 137.436 172.002 141.793C173.528 144.698 175.141 146.795 176.842 148.084L181.663 157.064L184.647 168.718L162.91 169.507C152.695 174.615 147.588 177.52 147.588 178.223C147.588 179.279 148.38 181.094 150.606 182.638C151.261 185.694 152.673 187.218 154.842 187.211C157.01 187.204 158.971 186.79 160.724 185.968C163.988 186.364 166.411 186.364 167.995 185.968L174.27 188.361L174.291 188.971C168 189.157 163.185 190.404 159.848 192.713C154.842 196.176 158.539 199.139 160.724 199.139C162.181 199.139 165.294 198.45 170.062 197.073H173.619C180.964 206.197 186.588 211.46 190.49 212.861C196.344 214.964 201.051 222.43 204.867 225.458C207.411 227.476 213.886 220.952 224.29 205.884Z" fill="#FDB4A3"/>
<path fill-rule="evenodd" clip-rule="evenodd" d="M162.91 169.507L184.647 168.718L185.648 172.516C185.79 173.055 185.468 173.607 184.929 173.749C184.687 173.813 184.43 173.784 184.208 173.67L181.625 172.333L182.038 173.724C188.708 196.252 191.078 209.098 189.148 212.264C185.388 210.289 180.3 205.335 173.884 197.401L173.619 197.073H170.062L169.508 197.232L168.426 197.537C164.66 198.581 162.122 199.115 160.812 199.138L160.724 199.139C158.539 199.139 154.842 196.176 159.848 192.713C163.12 190.449 167.811 189.206 173.922 188.983L174.291 188.971L174.27 188.361L167.995 185.968C166.411 186.364 163.988 186.364 160.724 185.968C158.971 186.79 157.01 187.204 154.842 187.211C152.673 187.218 151.261 185.694 150.606 182.638C148.38 181.094 147.588 179.279 147.588 178.223C147.588 177.562 152.106 174.953 161.141 170.396L162.91 169.507Z" fill="#F69883"/>
<path d="M165.566 176.004L165.984 175.767L185.075 180.454C185.725 180.614 186.122 181.27 185.963 181.919C185.81 182.542 185.201 182.933 184.579 182.824L184.498 182.807L166.333 178.346L166.275 178.377C163.313 179.953 158.467 181.682 151.705 183.589L150.931 183.805C150.286 183.984 149.619 183.607 149.44 182.963C149.261 182.318 149.638 181.651 150.282 181.472L151.038 181.26C157.764 179.364 162.52 177.658 165.269 176.168L165.566 176.004Z" fill="#2E363A"/>
<path fill-rule="evenodd" clip-rule="evenodd" d="M194.943 206.794C187.62 198.985 182.45 191.909 179.434 185.569C174.909 176.058 164.641 176.603 164.641 167.666C164.641 161.708 169.691 162.931 179.792 171.335C188.713 175.852 193.173 178.111 193.173 178.111C193.173 178.111 195.559 179.294 200.33 181.66" fill="#FDB4A3"/>
<path d="M180.018 187.065C180.639 186.816 181.344 187.118 181.592 187.739C183.747 193.116 186.623 196.903 190.207 199.141L190.423 199.273L191.062 199.658L190.4 208.41C190.349 209.077 189.768 209.577 189.101 209.527C188.462 209.478 187.976 208.942 187.981 208.311L187.985 208.228L188.535 200.945L188.485 200.913C184.711 198.405 181.712 194.412 179.477 188.968L179.344 188.639C179.095 188.019 179.397 187.314 180.018 187.065Z" fill="#2E363A"/>
<path fill-rule="evenodd" clip-rule="evenodd" d="M450.181 181.66C495.63 203.168 521.981 217.941 529.236 225.978C540.118 238.034 536.498 247.498 532.016 268.922C527.533 290.346 513.098 384.042 508.763 388.575C505.873 391.597 502.448 392.781 498.486 392.128L502.085 429.469C502.796 436.85 498.686 443.852 491.895 446.829C471.552 455.746 448.437 460.205 422.551 460.205C396.605 460.205 370.565 455.725 344.432 446.767L343.58 446.473C335.559 443.694 330.777 435.468 332.33 427.123L346.458 351.342C346.657 350.284 346.809 349.482 346.913 348.934C347.949 343.483 345.241 326.647 338.787 298.426C319.847 319.657 304.695 330.273 293.332 330.273C282.298 330.273 252.906 298.132 205.156 233.852L203.704 231.894C201.92 229.486 201.848 226.216 203.526 223.733C206.516 219.307 209.714 215.535 213.121 212.418C216.28 209.527 219.87 206.968 223.892 204.74L224.397 204.463C227.084 203.006 230.404 203.442 232.623 205.544L234.578 207.394C266.228 237.301 283.881 252.254 287.537 252.254C290.858 252.254 301.709 239.917 320.092 215.242C326.451 206.707 335.345 200.4 345.504 197.225L395.305 181.66H450.181Z" fill="#A72CF3"/>
<path d="M357.249 221.021C357.387 220.481 357.937 220.156 358.477 220.294C358.992 220.426 359.312 220.933 359.22 221.449L359.204 221.522L355.565 235.715C353.859 242.366 353.558 249.297 354.678 256.068L354.756 256.529L357.258 270.812C357.354 271.361 356.987 271.884 356.438 271.98C355.914 272.072 355.413 271.742 355.285 271.234L355.27 271.16L352.768 256.878C351.535 249.835 351.782 242.614 353.493 235.675L353.609 235.213L357.249 221.021Z" fill="#460A6A"/>
<path fill-rule="evenodd" clip-rule="evenodd" d="M395.513 204.55L415.295 223.878L444.598 205.546L429.406 202.019L422.384 206.248L416.051 211.789L411.616 206.248L403.888 197.421L395.513 204.55Z" fill="#580989"/>
<path fill-rule="evenodd" clip-rule="evenodd" d="M299.73 322.122C302.723 323.294 306.472 323.86 310.977 323.822C304.328 328.123 298.446 330.273 293.332 330.273C283.335 330.273 258.269 303.891 218.135 251.126L222.524 255.153C269.19 297.918 294.924 320.241 299.73 322.122Z" fill="#580989"/>
<path fill-rule="evenodd" clip-rule="evenodd" d="M396.969 338.139L398.221 339.185L398.19 339.984C398.185 340.119 398.18 340.255 398.175 340.391C398.143 341.33 398.549 342.227 399.268 342.824L399.368 342.903L400.359 343.655C432.742 368.127 465.144 384.193 497.564 391.853L498.171 391.995L498.27 392.217L498.517 392.445L502.085 429.469C502.796 436.85 498.686 443.852 491.895 446.829C476.962 453.374 460.536 457.518 442.617 459.258C444.406 455.523 446.313 451.926 448.337 448.468C464.667 420.568 405.396 367.416 398.129 356.838C393.335 349.862 392.906 343.687 396.839 338.314L396.969 338.139ZM483.649 266.433L483.912 266.434L477.353 331.317L474.325 332.744L474.325 336.693C472.545 335.782 469.549 335.351 465.337 335.4C462.857 333.964 459.548 332.347 455.411 330.548C465.045 316.477 471.149 299.53 470.997 288.549C470.795 273.985 474.926 266.614 483.389 266.436L483.649 266.433Z" fill="#580989"/>
<path d="M286.444 251.551C286.861 251.18 287.498 251.218 287.869 251.635L289.539 253.521C296.958 261.926 302.307 268.385 305.592 272.905C305.92 273.356 305.82 273.987 305.369 274.315C304.918 274.643 304.287 274.543 303.959 274.092L303.668 273.693C300.157 268.917 294.385 262.007 286.36 252.975C285.99 252.559 286.027 251.921 286.444 251.551Z" fill="#460A6A"/>
<path d="M287.445 251.048C296.662 249.433 304.949 250.386 312.279 253.919C312.781 254.161 312.991 254.764 312.749 255.266C312.507 255.768 311.904 255.979 311.402 255.737C304.469 252.395 296.609 251.491 287.793 253.036C287.244 253.133 286.721 252.766 286.625 252.217C286.529 251.668 286.896 251.145 287.445 251.048Z" fill="#460A6A"/>
<path fill-rule="evenodd" clip-rule="evenodd" d="M383.797 332.452L359.371 259.374C357.904 254.986 353.514 252.272 348.933 252.921L301.494 259.641C298.735 260.032 296.815 262.586 297.206 265.346C297.26 265.73 297.359 266.107 297.5 266.47L323.417 332.991C324.852 336.673 328.399 339.098 332.351 339.098H379.011C381.798 339.098 384.057 336.839 384.057 334.052C384.057 333.508 383.969 332.968 383.797 332.452Z" fill="#B6D4E5"/>
<path fill-rule="evenodd" clip-rule="evenodd" d="M382.283 333.462L357.857 260.383C356.39 255.996 352 253.281 347.419 253.93L299.98 260.651C297.221 261.042 295.301 263.595 295.692 266.355C295.746 266.74 295.845 267.117 295.986 267.479L321.903 334C323.338 337.683 326.885 340.107 330.836 340.107H377.497C380.284 340.107 382.543 337.848 382.543 335.061C382.543 334.517 382.455 333.977 382.283 333.462Z" fill="#E9F0F6"/>
<path fill-rule="evenodd" clip-rule="evenodd" d="M338.842 305.794C335.003 305.794 331.329 302.744 330.634 298.982C329.939 295.219 332.488 292.169 336.326 292.169C340.165 292.169 343.84 295.219 344.535 298.982C345.229 302.744 342.681 305.794 338.842 305.794Z" fill="#B6D4E5"/>
<path fill-rule="evenodd" clip-rule="evenodd" d="M366.403 281.068L382.424 292.075L402.676 312.104L408.239 314.201C401.963 320.096 398.726 328.899 398.526 340.612L391.447 334.281L367.678 329.492L354.869 325.444L345.01 317.173C343.493 315.871 343.29 313.606 344.528 312.056L344.613 311.954L356.511 319.161L366.403 320.833L355.548 316.725L344.613 308.605L344.504 308.546C343.114 307.751 342.496 306.068 343.042 304.562L343.087 304.444L343.7 302.934L340.104 298.743C339.21 297.7 338.891 296.281 339.254 294.956C339.303 294.777 339.385 294.609 339.495 294.459C339.97 293.816 340.861 293.659 341.524 294.088L341.602 294.142L354.869 303.936L369.469 308.222C369.509 308.233 369.551 308.239 369.592 308.239C369.834 308.239 370.03 308.043 370.03 307.802C370.03 307.476 369.839 307.184 369.547 307.052L369.478 307.025L354.869 301.945L343.531 291.294C342.643 290.459 342.364 289.16 342.832 288.034C342.871 287.938 342.92 287.846 342.977 287.759C343.467 287.009 344.454 286.779 345.221 287.22L345.305 287.271L358.539 295.925L371.475 297.075L366.403 281.068Z" fill="#FDB4A3"/>
<path d="M343.31 302.717C343.6 302.274 344.18 302.135 344.636 302.385L344.707 302.427L355.236 309.343L368.667 313.406C369.176 313.56 369.474 314.081 369.36 314.591L369.34 314.664C369.186 315.174 368.666 315.472 368.155 315.357L368.082 315.338L354.373 311.191L343.599 304.114C343.133 303.808 343.004 303.183 343.31 302.717Z" fill="#583E40"/>
<path d="M371.048 293.243C371.545 293.056 372.096 293.287 372.317 293.761L372.347 293.833L373.861 297.87C374.057 298.392 373.792 298.974 373.27 299.17C372.773 299.356 372.222 299.125 372.001 298.652L371.971 298.579L370.457 294.542C370.261 294.02 370.526 293.438 371.048 293.243Z" fill="#583E40"/>
<path fill-rule="evenodd" clip-rule="evenodd" d="M398.029 181.815V175.628L413.805 141.848L443.489 134.219L451.34 149.122L452.881 181.815L416.352 211.789C412.012 211.07 408.557 208.608 405.987 204.403C403.417 200.199 400.764 192.669 398.029 181.815Z" fill="#FDB4A3"/>
<path fill-rule="evenodd" clip-rule="evenodd" d="M368.537 94.3254C366.089 106.75 370.046 114.843 380.409 118.604L394.506 100.91L383.52 87.3746L368.537 94.3254Z" fill="#2E363A"/>
<path fill-rule="evenodd" clip-rule="evenodd" d="M430.788 166.833C409.697 175.522 394.523 177.695 385.265 173.35C377.981 153.731 374.724 139.25 375.494 129.91C376.265 120.569 376.89 106.157 377.371 86.6719C389.851 72.2513 408.932 67.0448 434.614 71.0524C460.295 75.06 466.038 106.412 451.842 165.11L430.788 166.833Z" fill="#FDB4A3"/>
<path fill-rule="evenodd" clip-rule="evenodd" d="M448.478 138.288L451.34 149.122L452.881 181.815L425.855 203.99L425.455 204.041C436.285 186.641 420.986 176.947 412.542 178.544L412.288 178.596C406.697 179.826 402.028 178.801 398.28 175.522C400.964 174.896 403.574 174.564 406.109 174.527L406.584 174.524C409.268 174.524 412.423 173.299 416.051 170.85L418.871 169.554C427.29 165.701 432.416 163.525 434.248 163.026C436.276 162.474 437.75 159.084 438.67 152.856C446.844 149.122 442.474 141.194 448.478 138.288Z" fill="#F69883"/>
<path fill-rule="evenodd" clip-rule="evenodd" d="M400.545 200.345L415.295 223.878L440.803 198.884L425.912 204.041L422.184 206.204L416.237 211.478L411.761 206.204L402.959 195.167L400.545 200.345Z" fill="#D8D8D8"/>
<path fill-rule="evenodd" clip-rule="evenodd" d="M411.616 206.127C406.065 200.146 400.522 201.193 394.987 209.27L394.562 208.043C390.118 195.098 388.513 186.892 389.746 183.426L389.786 183.319C390.649 181.071 392.808 179.587 395.216 179.587H398.029L411.616 206.127Z" fill="white"/>
<path fill-rule="evenodd" clip-rule="evenodd" d="M452.881 181.063L422.184 206.17L422.365 206.07C423.943 205.221 435.422 199.495 441.328 209.27C453.233 199.747 455.888 190.726 456.606 184.957L456.627 184.783C456.844 182.959 455.541 181.304 453.717 181.086C453.586 181.071 453.455 181.063 453.323 181.063H452.881Z" fill="white"/>
<path d="M405.594 148.632C405.98 148.085 406.736 147.955 407.282 148.34C407.828 148.726 407.959 149.482 407.573 150.028C403.399 155.942 397.415 158.403 389.812 157.359C389.15 157.268 388.686 156.657 388.777 155.994C388.868 155.332 389.479 154.868 390.142 154.959C396.866 155.883 401.953 153.791 405.594 148.632Z" fill="#2E363A"/>
<path d="M381.171 127.671C382.421 127.671 383.435 126.092 383.435 124.145C383.435 122.198 382.421 120.619 381.171 120.619C379.92 120.619 378.906 122.198 378.906 124.145C378.906 126.092 379.92 127.671 381.171 127.671Z" fill="#2E363A"/>
<path d="M404.822 127.167C406.073 127.167 407.087 125.588 407.087 123.641C407.087 121.694 406.073 120.115 404.822 120.115C403.572 120.115 402.558 121.694 402.558 123.641C402.558 125.588 403.572 127.167 404.822 127.167Z" fill="#2E363A"/>
<path d="M391.24 124.301C391.432 123.66 392.107 123.297 392.747 123.488C393.388 123.68 393.752 124.355 393.56 124.996L392.89 127.225C390.897 133.819 389.412 138.43 388.426 141.077L388.326 141.343L388.363 141.392C390.143 143.659 392.202 144.146 394.845 142.961L394.998 142.89C395.604 142.606 396.325 142.867 396.609 143.472C396.893 144.078 396.632 144.799 396.027 145.083C392.016 146.964 388.527 145.958 385.958 142.205C385.73 141.872 385.683 141.447 385.833 141.072L385.969 140.725C387.017 138.012 388.778 132.527 391.24 124.301Z" fill="#2E363A"/>
<path fill-rule="evenodd" clip-rule="evenodd" d="M416.749 112.066L415.833 111.816L414.931 111.577C405.949 109.224 400.839 108.907 399.601 110.626C397.434 113.637 401.755 118.582 408.058 117.424C411.024 116.88 413.842 115.973 416.51 114.703L416.953 114.489C417.559 114.19 417.823 113.422 417.543 112.775C417.391 112.423 417.1 112.163 416.749 112.066Z" fill="#2E363A"/>
<path fill-rule="evenodd" clip-rule="evenodd" d="M373.64 111.967L374.43 111.772C382.663 109.774 387.342 109.506 388.464 110.968C390.368 113.447 386.676 117.439 381.211 116.429C378.639 115.954 376.192 115.185 373.871 114.121L373.486 113.941C372.959 113.691 372.723 113.062 372.959 112.537C373.087 112.251 373.337 112.042 373.64 111.967Z" fill="#2E363A"/>
<path fill-rule="evenodd" clip-rule="evenodd" d="M377.444 98.4719C366.677 103.509 361.293 96.4388 361.293 77.26L368.246 79.3833C368.317 72.2116 369.479 66.8064 371.732 63.1677L377.444 69.7635C376.66 64.8006 378.399 60.4291 382.662 56.6489C393.972 59.33 405.82 60.6552 418.205 60.6245L419.032 60.6205C438.059 60.481 459.3 67.5024 464.812 74.3038C470.325 81.1053 472.321 104.795 470.116 111.427L468.881 115.085C466.334 122.573 460.733 138.857 452.077 163.937C447.832 154.165 446.633 145.615 448.478 138.288C455.417 136.89 458.552 132.668 457.884 125.623C456.883 115.056 442.505 117.656 442.505 123.893L441.469 132.864C438.881 132.864 436.677 130.982 436.272 128.425L434.657 118.236C430.567 116.443 427.925 112.4 427.925 107.934C427.925 105.179 427.925 103.26 427.925 102.178C427.925 101.803 431.823 99.8769 439.617 96.3992C438.892 96.0099 427.661 101.029 426.923 100.685C421.039 97.9437 413.538 96.2338 406.806 96.3708L405.612 96.3992C398.21 96.599 388.821 97.2899 377.444 98.4719Z" fill="#2E363A"/>
<path d="M437.476 152.611C437.59 151.952 438.217 151.509 438.876 151.623C439.535 151.737 439.977 152.363 439.863 153.022C438.896 158.63 437.099 162.325 434.349 164.056L434.11 164.202C431.372 165.833 423.369 169.307 409.952 174.7C409.332 174.95 408.626 174.649 408.377 174.028C408.127 173.408 408.428 172.702 409.049 172.453L411.832 171.33C423.795 166.486 430.915 163.354 433.059 162.006C435.1 160.721 436.614 157.607 437.476 152.611Z" fill="#2E363A"/>
<path d="M405.828 314.281C406.887 313.012 408.612 312.518 410.183 313.032L411.879 313.589C438.829 322.461 456.622 329.328 465.311 334.224L465.601 334.388L465.868 334.388C472.485 334.374 476.272 335.567 477.12 338.328L477.153 338.44C478.037 341.666 482.126 344.709 488.627 346.459C489.165 346.604 489.484 347.158 489.339 347.696C489.194 348.234 488.64 348.553 488.102 348.408C480.981 346.49 476.315 343.019 475.206 338.974C474.755 337.327 471.51 336.338 465.348 336.41C465.167 336.412 464.988 336.365 464.831 336.274C456.337 331.354 437.891 324.235 409.555 314.95C408.769 314.693 407.907 314.941 407.377 315.575C403.837 319.813 401.618 323.477 400.713 326.537L400.627 326.841C399.885 329.554 399.399 334.095 399.184 340.425C399.162 341.08 399.458 341.704 399.979 342.1C432.911 367.161 465.842 383.491 498.773 391.099C499.316 391.224 499.655 391.766 499.529 392.309C499.404 392.852 498.862 393.191 498.319 393.065C465.093 385.389 431.906 368.933 398.757 343.706C397.715 342.914 397.122 341.665 397.167 340.357L397.208 339.253C397.456 333.098 397.974 328.681 398.778 325.964C399.774 322.598 402.126 318.713 405.828 314.281Z" fill="#460A6A"/>
<path d="M484.003 265.429C484.558 265.479 484.967 265.97 484.917 266.525C483.026 287.493 480.839 309.128 478.356 331.429C478.299 331.94 477.868 332.326 477.353 332.326L477.151 332.33C474.882 332.404 474.655 333.773 476.713 337.612C476.976 338.103 476.792 338.715 476.3 338.978C475.809 339.242 475.198 339.057 474.934 338.566L474.761 338.237C472.467 333.781 472.915 330.858 476.293 330.378L476.444 330.358L476.615 328.82C478.9 308.169 480.929 288.093 482.704 268.591L482.907 266.344C482.955 265.814 483.404 265.417 483.928 265.425L484.003 265.429Z" fill="#460A6A"/>
<path d="M232.375 213.779C232.751 213.367 233.389 213.338 233.801 213.714C234.213 214.089 234.242 214.727 233.867 215.139C226.136 223.617 218.635 229.584 211.35 233.033C210.846 233.271 210.244 233.056 210.006 232.553C209.767 232.049 209.982 231.447 210.486 231.209C217.509 227.884 224.809 222.077 232.375 213.779Z" fill="#460A6A"/>
<path d="M206.672 223.838C207.046 223.465 207.639 223.445 208.035 223.779L208.099 223.838L211.632 227.37C212.026 227.764 212.026 228.403 211.632 228.797C211.258 229.171 210.665 229.19 210.269 228.856L210.204 228.797L206.672 225.265C206.278 224.871 206.278 224.232 206.672 223.838Z" fill="#460A6A"/>
<path d="M210.254 221.269C210.651 220.921 211.244 220.941 211.618 221.301L211.678 221.364L215.21 225.401C215.577 225.82 215.534 226.458 215.115 226.825C214.718 227.173 214.124 227.153 213.751 226.793L213.691 226.73L210.159 222.693C209.792 222.274 209.834 221.636 210.254 221.269Z" fill="#460A6A"/>
<path d="M212.727 218.287C213.101 217.914 213.694 217.894 214.091 218.228L214.155 218.287L218.696 222.829C219.09 223.223 219.09 223.862 218.696 224.256C218.323 224.629 217.73 224.649 217.333 224.315L217.269 224.256L212.727 219.714C212.333 219.32 212.333 218.681 212.727 218.287Z" fill="#460A6A"/>
<path d="M216.803 214.214C217.195 213.861 217.789 213.872 218.167 214.227L218.228 214.289L222.77 219.335C223.142 219.749 223.109 220.387 222.695 220.76C222.302 221.113 221.709 221.102 221.33 220.747L221.269 220.685L216.728 215.639C216.355 215.225 216.389 214.587 216.803 214.214Z" fill="#460A6A"/>
<path d="M221.344 210.177C221.737 209.824 222.33 209.835 222.709 210.19L222.77 210.252L227.311 215.298C227.684 215.712 227.651 216.35 227.236 216.723C226.844 217.077 226.25 217.065 225.872 216.711L225.811 216.648L221.269 211.602C220.897 211.188 220.93 210.55 221.344 210.177Z" fill="#460A6A"/>
<path d="M225.847 206.681C226.221 206.308 226.814 206.288 227.21 206.622L227.275 206.681L231.816 211.223C232.21 211.617 232.21 212.256 231.816 212.65C231.443 213.023 230.85 213.043 230.453 212.709L230.389 212.65L225.847 208.108C225.453 207.714 225.453 207.075 225.847 206.681Z" fill="#460A6A"/>
<path opacity="0.8" d="M0 135.898L184.183 98.3684V166.649L0 188.189V135.898Z" fill="#719CFE"/>
<path opacity="0.8" d="M21.1936 205.997L191.752 191.752V260.379L21.1936 259.892V205.997Z" fill="#DAA2FC"/>
<path opacity="0.8" d="M21.1936 280.533L191.752 286.618V355.215L21.1936 334.404V280.533Z" fill="#E9525B"/>
<path opacity="0.8" d="M21.1936 355.246L191.752 381.756V450.617L21.1936 409.324V355.246Z" fill="#4757A4"/>
<path d="M191.455 44.6407L20.4638 90.4191C15.267 91.8104 11.1014 97.1828 11.1014 102.504V414.156C11.1014 419.477 15.267 424.849 20.4638 426.241L191.455 472.019C196.944 473.488 201.34 468.798 201.34 461.852V54.8078C201.34 47.862 196.944 43.1713 191.455 44.6407ZM199.321 54.8078V461.852C199.321 467.607 196.003 471.147 191.977 470.069L20.9858 424.291C16.6677 423.135 13.1199 418.559 13.1199 414.156V102.504C13.1199 98.1006 16.6677 93.5249 20.9858 92.3688L191.977 46.5905C196.003 45.5126 199.321 49.0528 199.321 54.8078Z" fill="#E8DDFF"/>
<path d="M200.102 71.1457L200.559 73.1117L35.5512 111.462L35.0942 109.496L200.102 71.1457Z" fill="#E8DDFF"/>
<path d="M415.29 222.028C415.822 222.026 416.26 222.436 416.3 222.958L416.303 223.034L416.397 245.991C416.399 246.548 415.949 247.002 415.392 247.004C414.86 247.006 414.423 246.596 414.382 246.074L414.379 245.999L414.285 223.042C414.283 222.484 414.733 222.031 415.29 222.028Z" fill="#460A6A"/>
<path fill-rule="evenodd" clip-rule="evenodd" d="M345.601 424.587L362.529 429.396L361.072 436.755L344.144 431.946L345.601 424.587Z" fill="#9516E3"/>
<path d="M40.6842 134.396L10.4076 140.174C8.53818 140.531 7.06451 142.314 7.06451 144.218V175.064C7.06451 177.09 8.72742 178.566 10.7279 178.304L41.0045 174.338C42.9134 174.088 44.4057 172.283 44.4057 170.286V137.627C44.4057 135.507 42.7169 134.008 40.6842 134.396ZM42.3872 137.627V170.286C42.3872 171.294 41.6203 172.222 40.7423 172.337L10.4657 176.303C9.67926 176.406 9.08296 175.877 9.08296 175.064V144.218C9.08296 143.282 9.86851 142.332 10.786 142.157L41.0626 136.378C41.8168 136.234 42.3872 136.741 42.3872 137.627Z" fill="white"/>
<path d="M30.2396 289.648C28.3038 289.58 26.7444 291.161 26.7444 293.141V323.987C26.7444 325.914 28.2206 327.624 30.094 327.83L59.4989 331.088C61.48 331.31 63.0698 329.701 63.0698 327.605V294.547C63.0698 292.506 61.5691 290.765 59.6464 290.696L30.2396 289.648ZM30.1686 291.666L59.5741 292.713C60.3577 292.741 61.0513 293.546 61.0513 294.547V327.605C61.0513 328.552 60.4469 329.163 59.7222 329.082L30.3153 325.824C29.4808 325.732 28.7628 324.9 28.7628 323.987V293.141C28.7628 292.282 29.3976 291.638 30.1686 291.666Z" fill="white"/>
<path d="M61.612 211.951L33.0655 214.641C31.2301 214.814 29.7721 216.439 29.7721 218.298V247.434C29.7721 249.341 31.3056 250.854 33.1948 250.789L61.7413 249.811C63.616 249.747 65.0948 248.098 65.0948 246.15V215.302C65.0948 213.305 63.5375 211.769 61.612 211.951ZM63.0764 215.302V246.15C63.0764 247.042 62.4251 247.768 61.6721 247.794L33.1256 248.772C32.3872 248.797 31.7905 248.209 31.7905 247.434V218.298C31.7905 217.474 32.4627 216.725 33.2549 216.65L61.8014 213.96C62.5036 213.894 63.0764 214.459 63.0764 215.302Z" fill="white"/>
<path d="M173.675 201.373L83.4874 209.865C78.3138 210.353 74.1777 215.289 74.1777 220.891C74.1777 226.549 78.4047 230.925 83.6467 230.589L173.834 224.799C179.06 224.463 183.174 218.891 183.174 212.42C183.174 205.896 178.975 200.874 173.675 201.373ZM181.155 212.42C181.155 217.914 177.752 222.525 173.705 222.784L83.5174 228.574C79.4865 228.833 76.1962 225.427 76.1962 220.891C76.1962 216.297 79.5773 212.261 83.6767 211.875L173.864 203.383C177.836 203.009 181.155 206.978 181.155 212.42Z" fill="white"/>
<path d="M148.825 244.737C149.383 244.717 149.85 245.154 149.869 245.711C149.887 246.242 149.49 246.692 148.97 246.748L148.895 246.754L75.2215 249.277C74.6644 249.296 74.1974 248.86 74.1777 248.303C74.1601 247.771 74.5566 247.321 75.0772 247.265L75.1524 247.26L148.825 244.737Z" fill="white"/>
<path d="M182.112 232.122C182.669 232.093 183.143 232.521 183.172 233.078C183.2 233.609 182.811 234.066 182.292 234.131L182.217 234.138L75.2393 239.689C74.6826 239.717 74.208 239.29 74.1791 238.733C74.1515 238.202 74.5401 237.745 75.0596 237.679L75.1347 237.673L182.112 232.122Z" fill="white"/>
<path d="M29.7721 369.932V399.128C29.7721 400.939 31.1566 402.691 32.9219 403.12L61.4653 410.152C63.434 410.643 65.0948 409.23 65.0948 407.147V375.723C65.0948 373.799 63.6903 372.013 61.8766 371.704L33.3254 366.897C31.3941 366.577 29.7721 367.967 29.7721 369.932ZM32.995 368.889L61.5392 373.694C62.3507 373.832 63.0764 374.755 63.0764 375.723V407.147C63.0764 407.957 62.6071 408.356 61.9512 408.193L33.4016 401.159C32.5361 400.949 31.7905 400.006 31.7905 399.128V369.932C31.7905 369.209 32.2987 368.773 32.995 368.889Z" fill="white"/>
<path d="M74.1777 384.501C74.1777 390.089 78.1635 395.457 83.2022 396.626L173.69 416.653C179.008 417.758 183.174 412.878 183.174 405.977C183.174 399.129 179.129 392.781 173.955 391.81L83.7537 375.557C78.4716 374.645 74.1777 378.712 74.1777 384.501ZM83.4104 377.546L173.59 393.795C177.682 394.563 181.155 400.014 181.155 405.977C181.155 411.741 177.964 415.48 174.113 414.679L83.8001 394.692C79.6366 393.807 76.1962 389.228 76.1962 384.501C76.1962 379.911 79.4204 376.857 83.4104 377.546Z" fill="white"/>
<path d="M74.2103 412.012C74.3443 411.497 74.8525 411.179 75.3676 411.274L75.4412 411.29L149.114 430.465C149.654 430.605 149.977 431.157 149.837 431.696C149.703 432.211 149.195 432.529 148.679 432.435L148.606 432.418L74.9327 413.243C74.3933 413.103 74.0699 412.552 74.2103 412.012Z" fill="white"/>
<path d="M74.2058 402.443C74.3303 401.926 74.8325 401.598 75.3492 401.683L75.4231 401.698L182.4 427.433C182.942 427.563 183.276 428.108 183.146 428.65C183.021 429.167 182.519 429.495 182.002 429.41L181.928 429.395L74.951 403.66C74.4091 403.53 74.0755 402.985 74.2058 402.443Z" fill="white"/>
<path d="M158.511 111.908L63.644 130.014C58.2775 131.038 53.9933 136.561 53.9933 142.389C53.9933 148.346 58.4795 152.551 63.9935 151.664L158.86 136.397C164.275 135.526 168.54 129.342 168.54 122.597C168.54 115.735 164.086 110.844 158.511 111.908ZM166.521 122.597C166.521 128.425 162.879 133.706 158.54 134.405L63.6728 149.671C59.4328 150.353 56.0117 147.146 56.0117 142.389C56.0117 137.504 59.6347 132.834 64.0224 131.996L158.889 113.89C163.068 113.093 166.521 116.885 166.521 122.597Z" fill="white"/>
<path d="M72.3235 302.057C72.3235 308.003 76.5409 313.165 81.8341 313.561L173.97 320.667C179.388 321.097 183.634 315.489 183.634 308.332C183.634 301.212 179.448 295.187 174.087 294.978L81.9462 291.505C76.6029 291.31 72.3235 296.072 72.3235 302.057ZM81.8726 293.522L174.01 296.995C178.122 297.155 181.616 302.185 181.616 308.332C181.616 314.441 178.182 318.976 174.128 318.655L81.987 311.548C77.8041 311.235 74.3419 306.998 74.3419 302.057C74.3419 297.155 77.7425 293.371 81.8726 293.522Z" fill="white"/>
<path d="M132.408 160.019C132.96 159.946 133.467 160.335 133.54 160.888C133.609 161.416 133.258 161.901 132.745 162.008L132.671 162.02L55.134 172.21C54.5814 172.283 54.0745 171.894 54.0019 171.341C53.9326 170.814 54.2839 170.328 54.7967 170.222L54.871 170.209L132.408 160.019Z" fill="white"/>
<path d="M73.4479 330.342L148.755 338.989C149.308 339.052 149.706 339.553 149.642 340.106C149.582 340.635 149.123 341.021 148.6 341L148.524 340.994L73.2177 332.348C72.6639 332.284 72.2666 331.784 72.3302 331.23C72.3909 330.701 72.8496 330.315 73.3728 330.336L73.4479 330.342Z" fill="white"/>
<path d="M167.636 143.352C168.187 143.27 168.7 143.652 168.781 144.203C168.859 144.729 168.515 145.221 168.004 145.335L167.93 145.349L55.1495 161.955C54.5981 162.036 54.0853 161.655 54.0041 161.103C53.9266 160.577 54.2704 160.086 54.7814 159.972L54.8555 159.958L167.636 143.352Z" fill="white"/>
<path d="M73.3531 319.916L73.4284 319.921L182.965 330.343C183.52 330.396 183.927 330.888 183.875 331.443C183.824 331.973 183.373 332.368 182.85 332.357L182.774 332.352L73.2372 321.93C72.6823 321.877 72.2753 321.384 72.3281 320.83C72.3785 320.3 72.8296 319.905 73.3531 319.916Z" fill="white"/>
<path d="M448.031 122.943C453.117 122.68 455.736 125.116 455.233 129.803C455.162 130.468 454.565 130.949 453.9 130.878C453.235 130.807 452.754 130.21 452.825 129.545C453.16 126.417 451.822 125.173 448.156 125.362C447.488 125.397 446.919 124.883 446.884 124.215C446.85 123.547 447.363 122.978 448.031 122.943Z" fill="#2E363A"/>
</svg>
