<svg width="733" height="502" viewBox="0 0 733 502" fill="none" xmlns="http://www.w3.org/2000/svg">
<rect x="16" y="465" width="769" height="37" fill="#585F74"/>
<path d="M556.137 18.0608H68.8675C53.5356 18.0608 41.0377 28.5629 41.0377 41.6213V338.751C41.0377 351.809 53.5356 362.311 68.8675 362.311H556.137C571.469 362.311 583.967 351.809 583.967 338.751V41.6213C583.967 28.5629 571.469 18.0608 556.137 18.0608ZM68.8675 20.25H556.137C570.336 20.25 581.778 29.8645 581.778 41.6213V338.751C581.778 350.508 570.336 360.122 556.137 360.122H68.8675C54.6685 360.122 43.2269 350.508 43.2269 338.751V41.6213C43.2269 29.8645 54.6685 20.25 68.8675 20.25Z" fill="#E7CFF0"/>
<path fill-rule="evenodd" clip-rule="evenodd" d="M72.7748 0H577.962C583.394 0 587.798 3.89955 587.798 8.70989V333.351C587.798 338.162 583.394 342.061 577.962 342.061H72.7748C67.3428 342.061 62.9393 338.162 62.9393 333.351V8.70989C62.9393 3.89955 67.3428 0 72.7748 0Z" fill="#E9F4F7"/>
<path fill-rule="evenodd" clip-rule="evenodd" d="M490.247 101.797C490.381 101.797 490.516 101.803 490.651 101.814C491.771 101.904 492.804 102.363 493.558 103.084L493.741 103.27C493.904 103.446 494.051 103.636 494.181 103.838C495.523 105.925 494.927 108.608 493.743 110.339C493.372 110.883 492.944 111.367 492.486 111.807L499.051 111.497C499.683 111.497 500.201 111.998 500.229 112.639C500.26 113.301 499.755 113.863 499.102 113.893L488.65 114.385C488.136 114.385 487.679 114.05 487.522 113.552C487.36 113.035 487.559 112.472 488.01 112.179L488.718 111.715C489.895 110.931 491.037 110.084 491.796 108.974C492.506 107.936 492.935 106.295 492.196 105.143C491.856 104.613 491.209 104.262 490.465 104.204C490.392 104.198 490.32 104.195 490.248 104.195C489.764 104.195 489.311 104.325 488.956 104.562L489.011 105.329C489.06 105.988 488.57 106.563 487.917 106.611L487.785 106.612L487.733 106.608C487.155 106.558 486.693 106.102 486.651 105.504L486.551 104.145C486.527 103.82 486.635 103.499 486.851 103.256C487.675 102.329 488.919 101.797 490.247 101.797ZM460.614 87.5676C460.773 87.5676 460.934 87.5986 461.09 87.6629L461.324 87.8214L461.366 87.7987C461.489 87.7594 461.613 87.7415 461.736 87.7415C462.249 87.7415 462.724 88.0655 462.889 88.573L466.912 101.024C467.453 101.163 467.848 101.635 467.823 102.206C467.811 102.481 467.691 102.718 467.523 102.913L468.429 105.72L468.467 105.865L468.485 106.01C468.517 106.541 468.181 107.046 467.64 107.214C467.518 107.252 467.395 107.27 467.273 107.27C466.921 107.27 466.586 107.119 466.358 106.861C466.252 106.741 466.17 106.6 466.118 106.44L465.097 103.28L455.804 102.876L454.396 106.115C454.201 106.568 453.752 106.839 453.28 106.839C453.122 106.839 452.96 106.809 452.805 106.744C452.189 106.485 451.903 105.786 452.166 105.181L459.498 88.2919C459.695 87.8392 460.142 87.5676 460.614 87.5676ZM477.66 99.0609C478.336 99.0609 478.886 99.5502 478.886 100.155C478.886 100.761 478.336 101.25 477.66 101.25H471.902C471.226 101.25 470.676 100.761 470.676 100.155C470.676 99.5502 471.226 99.0609 471.902 99.0609H477.66ZM461.015 90.8514L456.994 100.914L464.109 101.25L461.015 90.8514ZM485.03 94.6825L485.083 94.6837L499.652 95.577C500.314 95.6177 500.816 96.1845 500.775 96.8446C500.736 97.4784 500.208 97.9663 499.58 97.9663L499.505 97.9639L484.936 97.0706C484.275 97.03 483.772 96.4631 483.814 95.803C483.852 95.1621 484.382 94.6825 485.03 94.6825ZM476.609 94.6825C477.21 94.6825 477.728 95.1388 477.786 95.7302C477.847 96.3655 477.362 96.9292 476.701 96.9893L471.99 97.4144L471.877 97.419C471.264 97.419 470.739 96.9708 470.682 96.3713C470.619 95.736 471.105 95.1734 471.767 95.1145L476.475 94.6894C476.52 94.6848 476.565 94.6825 476.609 94.6825ZM491.281 79.3637L492.019 91.2589C492.058 91.9024 491.522 92.4536 490.82 92.491L490.746 92.4933C490.077 92.4933 489.515 92.0134 489.477 91.3909L488.739 79.4968C488.7 78.8533 489.235 78.301 489.938 78.2647L489.994 78.2636C490.67 78.2636 491.241 78.7389 491.281 79.3637Z" fill="#E9525B"/>
<path d="M365.302 130.792L364.989 128.074C364.92 127.473 364.377 127.043 363.776 127.112C363.176 127.181 362.745 127.724 362.814 128.325L363.128 131.043C363.197 131.644 363.74 132.074 364.34 132.005C364.941 131.936 365.372 131.393 365.302 130.792ZM364.174 121.006L363.86 118.287C363.791 117.687 363.248 117.256 362.648 117.325C362.047 117.395 361.616 117.938 361.686 118.538L361.999 121.257C362.068 121.857 362.611 122.288 363.212 122.219C363.812 122.149 364.243 121.606 364.174 121.006ZM363.045 111.219L362.732 108.501C362.662 107.9 362.12 107.47 361.519 107.539C360.918 107.608 360.488 108.151 360.557 108.752L360.87 111.47C360.94 112.071 361.483 112.501 362.083 112.432C362.684 112.363 363.115 111.82 363.045 111.219ZM361.917 101.433L361.603 98.7143C361.534 98.1137 360.991 97.683 360.39 97.7523C359.79 97.8215 359.359 98.3645 359.428 98.9651L359.742 101.684C359.811 102.284 360.354 102.715 360.955 102.646C361.555 102.576 361.986 102.033 361.917 101.433ZM360.788 91.6462L360.475 88.9278C360.405 88.3272 359.862 87.8965 359.262 87.9658C358.661 88.035 358.231 88.578 358.3 89.1786L358.613 91.897C358.683 92.4976 359.226 92.9283 359.826 92.859C360.427 92.7898 360.857 92.2468 360.788 91.6462ZM359.659 81.8597L359.346 79.1413C359.277 78.5407 358.734 78.11 358.133 78.1793C357.533 78.2485 357.102 78.7915 357.171 79.3921L357.485 82.1105C357.554 82.7111 358.097 83.1418 358.697 83.0725C359.298 83.0033 359.729 82.4603 359.659 81.8597ZM358.531 72.0732L358.217 69.3548C358.148 68.7542 357.605 68.3235 357.005 68.3928C356.404 68.462 355.973 69.005 356.043 69.6056L356.356 72.3241C356.425 72.9246 356.968 73.3553 357.569 73.286C358.169 73.2168 358.6 72.6738 358.531 72.0732ZM357.402 62.2867L357.089 59.5683C357.02 58.9677 356.477 58.537 355.876 58.6063C355.275 58.6755 354.845 59.2185 354.914 59.8191L355.228 62.5375C355.297 63.1381 355.84 63.5688 356.44 63.4995C357.041 63.4303 357.472 62.8873 357.402 62.2867ZM356.274 52.5002L355.96 49.7818C355.891 49.1812 355.348 48.7505 354.747 48.8198C354.147 48.889 353.716 49.432 353.785 50.0326L354.099 52.751C354.168 53.3516 354.711 53.7823 355.312 53.713C355.912 53.6438 356.343 53.1008 356.274 52.5002ZM355.145 42.7137L354.832 39.9953C354.762 39.3947 354.219 38.964 353.619 39.0333C353.018 39.1025 352.588 39.6455 352.657 40.2461L352.97 42.9645C353.04 43.5651 353.583 43.9958 354.183 43.9265C354.784 43.8573 355.214 43.3143 355.145 42.7137Z" fill="#6F97F8"/>
<path d="M343.973 164.993L344.203 162.266C344.254 161.664 343.807 161.134 343.204 161.084C342.602 161.033 342.072 161.48 342.021 162.082L341.791 164.809C341.741 165.412 342.188 165.941 342.79 165.992C343.393 166.043 343.922 165.596 343.973 164.993ZM344.801 155.177L345.031 152.45C345.082 151.847 344.634 151.318 344.032 151.267C343.43 151.216 342.9 151.663 342.849 152.266L342.619 154.993C342.568 155.595 343.016 156.125 343.618 156.175C344.22 156.226 344.75 155.779 344.801 155.177ZM345.629 145.36L345.859 142.633C345.909 142.031 345.462 141.501 344.86 141.451C344.257 141.4 343.728 141.847 343.677 142.449L343.447 145.176C343.396 145.779 343.844 146.308 344.446 146.359C345.048 146.41 345.578 145.963 345.629 145.36ZM346.457 135.544L346.686 132.817C346.737 132.214 346.29 131.685 345.688 131.634C345.085 131.583 344.556 132.03 344.505 132.633L344.275 135.36C344.224 135.962 344.671 136.492 345.274 136.542C345.876 136.593 346.406 136.146 346.457 135.544ZM347.284 125.727L347.514 123C347.565 122.398 347.118 121.868 346.516 121.818C345.913 121.767 345.384 122.214 345.333 122.816L345.103 125.543C345.052 126.146 345.499 126.675 346.102 126.726C346.704 126.777 347.234 126.33 347.284 125.727ZM348.112 115.911L348.342 113.184C348.393 112.581 347.946 112.052 347.343 112.001C346.741 111.95 346.212 112.397 346.161 113L345.931 115.727C345.88 116.329 346.327 116.859 346.93 116.909C347.532 116.96 348.061 116.513 348.112 115.911ZM348.94 106.094L349.17 103.367C349.221 102.765 348.774 102.235 348.171 102.185C347.569 102.134 347.039 102.581 346.989 103.183L346.759 105.91C346.708 106.513 347.155 107.042 347.757 107.093C348.36 107.144 348.889 106.696 348.94 106.094ZM349.768 96.2776L349.998 93.5508C350.049 92.9484 349.602 92.4189 348.999 92.3681C348.397 92.3173 347.867 92.7644 347.817 93.3668L347.587 96.0936C347.536 96.696 347.983 97.2255 348.585 97.2763C349.188 97.3271 349.717 96.88 349.768 96.2776ZM350.596 86.4611L350.826 83.7343C350.877 83.1319 350.43 82.6024 349.827 82.5515C349.225 82.5007 348.695 82.9479 348.644 83.5503L348.414 86.2771C348.364 86.8795 348.811 87.409 349.413 87.4598C350.016 87.5106 350.545 87.0635 350.596 86.4611ZM351.424 76.6446L351.654 73.9177C351.705 73.3154 351.257 72.7858 350.655 72.735C350.053 72.6842 349.523 73.1314 349.472 73.7338L349.242 76.4606C349.192 77.063 349.639 77.5925 350.241 77.6433C350.843 77.6941 351.373 77.2469 351.424 76.6446ZM352.252 66.828L352.482 64.1012C352.532 63.4988 352.085 62.9693 351.483 62.9185C350.881 62.8677 350.351 63.3149 350.3 63.9173L350.07 66.6441C350.019 67.2465 350.467 67.776 351.069 67.8268C351.671 67.8776 352.201 67.4304 352.252 66.828ZM353.08 57.0115L353.31 54.2847C353.36 53.6823 352.913 53.1528 352.311 53.102C351.708 53.0512 351.179 53.4984 351.128 54.1007L350.898 56.8276C350.847 57.4299 351.294 57.9595 351.897 58.0103C352.499 58.0611 353.029 57.6139 353.08 57.0115ZM353.907 47.195L354.137 44.4682C354.188 43.8658 353.741 43.3363 353.139 43.2855C352.536 43.2347 352.007 43.6818 351.956 44.2842L351.726 47.011C351.675 47.6134 352.122 48.1429 352.725 48.1937C353.327 48.2445 353.857 47.7974 353.907 47.195Z" fill="#6F97F8"/>
<path d="M347.534 241.358H339.325C338.72 241.358 338.23 241.848 338.23 242.453V250.662C338.23 251.267 338.72 251.757 339.325 251.757H347.534C348.139 251.757 348.629 251.267 348.629 250.662V242.453C348.629 241.848 348.139 241.358 347.534 241.358ZM346.44 243.548V249.568H340.419V243.548H346.44Z" fill="#E9525B"/>
<path fill-rule="evenodd" clip-rule="evenodd" d="M47.3413 241.733V285.79H35.848V241.733C35.848 238.559 38.4209 235.986 41.5947 235.986C44.7684 235.986 47.3413 238.559 47.3413 241.733Z" fill="#585F74"/>
<path fill-rule="evenodd" clip-rule="evenodd" d="M47.3413 306.587V464.756H35.848V306.587H47.3413Z" fill="#585F74"/>
<path fill-rule="evenodd" clip-rule="evenodd" d="M36.3954 208.621C37.9067 208.621 39.1319 209.846 39.1319 211.358V217.378C39.1319 218.889 37.9067 220.114 36.3954 220.114H35.8481V226.135H30.9224V220.114H30.3751C28.8638 220.114 27.6386 218.889 27.6386 217.378V211.358C27.6386 209.846 28.8638 208.621 30.3751 208.621H36.3954Z" fill="#585F74"/>
<path fill-rule="evenodd" clip-rule="evenodd" d="M30.3751 208.621H32.5643C34.0756 208.621 35.3008 209.846 35.3008 211.358V217.378C35.3008 218.889 34.0756 220.114 32.5643 220.114H30.3751C28.8638 220.114 27.6386 218.889 27.6386 217.378V211.358C27.6386 209.846 28.8638 208.621 30.3751 208.621Z" fill="#697084"/>
<path fill-rule="evenodd" clip-rule="evenodd" d="M0 295.368C0 293.856 1.22517 292.631 2.73649 292.631H8.75677C10.2681 292.631 11.4933 293.856 11.4933 295.368V295.915H17.5135V300.841H11.4933V301.388C11.4933 302.899 10.2681 304.125 8.75677 304.125H2.73649C1.22517 304.125 0 302.899 0 301.388V295.368Z" fill="#697084"/>
<path fill-rule="evenodd" clip-rule="evenodd" d="M0 301.388V299.199C0 297.687 1.22517 296.462 2.73649 296.462H8.75677C10.2681 296.462 11.4933 297.687 11.4933 299.199V301.388C11.4933 302.899 10.2681 304.124 8.75677 304.124H2.73649C1.22517 304.124 0 302.899 0 301.388Z" fill="#585F74"/>
<path fill-rule="evenodd" clip-rule="evenodd" d="M63.6413 226.853L45.6994 224.493H34.2982V252.952H45.6994L63.6413 250.591C65.2752 250.376 66.4967 248.984 66.4967 247.336V230.109C66.4967 228.461 65.2752 227.068 63.6413 226.853Z" fill="#697084"/>
<path fill-rule="evenodd" clip-rule="evenodd" d="M63.2129 284.148H34.2982V312.608H45.6994L64.0486 307.779C65.4912 307.399 66.4967 306.095 66.4967 304.603V287.432C66.4967 285.618 65.0265 284.148 63.2129 284.148Z" fill="#697084"/>
<path fill-rule="evenodd" clip-rule="evenodd" d="M21.6182 224.493H40.2264C43.249 224.493 45.6993 226.943 45.6993 229.966V247.479C45.6993 250.502 43.249 252.952 40.2264 252.952H21.6182C18.2933 252.952 15.598 250.257 15.598 246.932V230.513C15.598 227.188 18.2933 224.493 21.6182 224.493Z" fill="#585F74"/>
<path fill-rule="evenodd" clip-rule="evenodd" d="M21.6182 284.148H40.2264C43.249 284.148 45.6993 286.598 45.6993 289.621V307.135C45.6993 310.157 43.249 312.608 40.2264 312.608H21.6182C18.2933 312.608 15.598 309.912 15.598 306.587V290.168C15.598 286.844 18.2933 284.148 21.6182 284.148Z" fill="#585F74"/>
<path d="M30.9224 306.587C35.4563 306.587 39.1318 302.912 39.1318 298.378C39.1318 293.844 35.4563 290.168 30.9224 290.168C26.3884 290.168 22.7129 293.844 22.7129 298.378C22.7129 302.912 26.3884 306.587 30.9224 306.587Z" fill="#697084"/>
<path d="M30.9224 246.932C35.4563 246.932 39.1318 243.256 39.1318 238.722C39.1318 234.188 35.4563 230.513 30.9224 230.513C26.3884 230.513 22.7129 234.188 22.7129 238.722C22.7129 243.256 26.3884 246.932 30.9224 246.932Z" fill="#697084"/>
<path fill-rule="evenodd" clip-rule="evenodd" d="M59.6555 232.702H111.375V244.195H59.6555C56.4817 244.195 53.9089 241.623 53.9089 238.449C53.9089 235.275 56.4817 232.702 59.6555 232.702Z" fill="#585F74"/>
<path fill-rule="evenodd" clip-rule="evenodd" d="M121.774 205.337L134.338 207.07C136.233 207.332 137.645 208.952 137.645 210.865V267.01C137.645 268.974 136.161 270.619 134.209 270.821L121.774 272.108V205.337Z" fill="#585F74"/>
<path d="M214.639 159.53V329.408C214.639 336.37 210.347 341.562 205.052 341.004C200.557 341.176 197.494 341.176 195.863 341.004C183.596 339.711 165.811 337.515 142.51 334.415C137.215 333.857 132.923 328.259 132.923 321.912V167.026C132.923 160.679 137.215 155.081 142.51 154.523C166.385 151.391 184.435 149.181 196.659 147.893C197.882 147.764 200.48 147.737 204.452 147.811C210.105 147.916 214.639 153.132 214.639 159.53Z" fill="#506D7C"/>
<path d="M198.281 147.934C203.576 147.376 207.868 152.568 207.868 159.53V329.408C207.868 336.37 203.576 341.562 198.281 341.004L135.739 334.415C130.444 333.857 126.152 328.259 126.152 321.912V167.026C126.152 160.679 130.444 155.081 135.739 154.523L198.281 147.934Z" fill="#607D8C"/>
<path d="M154.885 161.006C155.641 161.006 156.254 160.148 156.254 159.091C156.254 158.033 155.641 157.175 154.885 157.175C154.13 157.175 153.517 158.033 153.517 159.091C153.517 160.148 154.13 161.006 154.885 161.006Z" fill="#506D7C"/>
<path d="M198.095 153.81L198.226 153.799C200.939 153.622 203.116 156.313 203.116 159.884V328.924L203.114 329.096C203.045 332.639 200.824 335.268 198.095 334.998L135.552 328.815L135.421 328.8C132.708 328.447 130.531 325.555 130.531 322.265V166.543L130.532 166.384C130.602 163.107 132.823 160.263 135.552 159.993L147.963 158.766L148.747 161.775C149.035 162.881 149.867 163.587 150.823 163.551L150.926 163.545L183.178 160.544C184.176 160.451 185.058 159.537 185.356 158.286L186.139 154.992L198.095 153.81Z" fill="#E9F0F6"/>
<path fill-rule="evenodd" clip-rule="evenodd" d="M179.825 208.568C180.529 214.553 179.24 219.367 175.956 223.01C176.26 230.013 178.663 235.764 183.165 240.264C191.264 235.699 198.166 230.429 203.868 224.454C199.218 218.127 196.878 211.356 196.849 204.142L184.432 206.692L179.825 208.568Z" fill="#CDE2F4"/>
<path fill-rule="evenodd" clip-rule="evenodd" d="M168.604 235.885C164.204 229.356 163.31 222.239 165.924 214.535C169.844 202.979 175.494 205.882 175.494 194.095C175.494 186.237 177.91 181.559 182.742 180.061L194 182.799L203.321 208.21L189.152 217.164L182.742 220.162C182.662 221.985 182.473 223.308 182.174 224.131C181.633 225.618 177.11 229.536 168.604 235.885Z" fill="#A1BDD5"/>
<path fill-rule="evenodd" clip-rule="evenodd" d="M182.524 226.034C176.116 227.428 171.206 230.208 167.795 234.376C162.679 240.629 149.506 260.274 154.713 270.241C155.88 272.236 157.237 273.45 158.783 273.884C160.569 274.384 163.887 274.383 168.736 273.881C169.282 289.153 167.116 301.936 162.235 312.23C170.076 315.723 175.445 314.448 178.343 308.405C179.971 305.009 179.455 297.399 178.08 287.507C175.784 270.998 167.351 251.995 167.351 248.131C167.351 244.011 172.409 236.646 182.524 226.034Z" fill="#B9D5EE"/>
<path d="M173.323 295.541L179.238 295.882L203.321 295.596L203.147 329.49C203.132 332.513 200.669 334.951 197.646 334.935C197.477 334.934 197.309 334.926 197.141 334.909L173.781 332.624C173.13 319.865 169.014 306.487 173.13 295.798L173.323 295.541Z" fill="#A1BDD5"/>
<path fill-rule="evenodd" clip-rule="evenodd" d="M182.658 224.939C181.623 227.124 180.509 229.089 179.316 230.835C181.133 233.788 182.658 235.773 183.892 236.789L184.836 236.366C191.844 233.195 197.276 230.091 201.132 227.054C193.526 238.251 190.435 247.993 191.858 256.28L192.103 257.646C193.577 266.045 195.037 279.042 196.484 296.635H174.302C173.093 296.635 172.113 295.655 172.113 294.446C172.113 294.262 172.136 294.078 172.182 293.9C173.512 288.743 173.889 282.59 173.313 275.44C172.292 262.749 166.652 248.732 166.652 247.978L166.656 247.848C166.709 246.798 167.383 242.403 171.983 236.488C175.2 232.352 178.758 228.502 182.658 224.939Z" fill="#A1BDD5"/>
<path fill-rule="evenodd" clip-rule="evenodd" d="M202.729 224.392L203.321 224.58L203.321 315.189C200.938 315.364 198.248 315.12 195.252 314.456L194.938 314.385C198.44 301.664 192.919 269.388 191.435 255.623C190.456 246.545 194.13 236.26 202.456 224.767L202.729 224.392Z" fill="#B9D5EE"/>
<path fill-rule="evenodd" clip-rule="evenodd" d="M203.32 243.001V275.822C202.031 275.923 200.71 275.877 199.377 275.67L175.344 271.934L168.784 273.097L165.587 272.237L163.916 258.853L194.256 259.8L203.32 243.001Z" fill="#B9D5EE"/>
<path fill-rule="evenodd" clip-rule="evenodd" d="M183.623 180.061L193.131 184.496L197.276 195.052C197.298 191.784 200.755 191.911 203.321 194.023L203.321 206.79C202.655 207.428 201.866 207.976 200.955 208.434C203.443 210.312 202.553 212.022 198.285 213.561L197.42 213.87C193.326 215.315 188.451 216.815 182.797 218.372C180.179 218.02 173.257 207.713 174.02 202.746C174.514 199.536 174.107 195.952 172.798 191.995L172.672 191.623L177.008 183.225L183.623 180.061Z" fill="#CDE2F4"/>
<path fill-rule="evenodd" clip-rule="evenodd" d="M199.549 180.05C200.988 180.331 202.246 180.773 203.321 181.378L203.321 208.058L203.181 208.272C200.895 211.722 198.366 212.15 196.921 205.313C199.829 202.406 200.817 199.992 199.885 198.072C198.487 195.192 194.674 195.08 193.516 198.072L193.043 200.091C191.015 197.282 190.488 194.742 191.463 192.471C186.95 192.752 183.525 191.262 181.189 188.001C178.887 190.296 176.002 192.387 172.535 194.275C169.871 192.471 166.713 180.265 177.364 175.892C188.014 171.519 199.549 175.706 199.549 180.05Z" fill="#A1BDD5"/>
<path fill-rule="evenodd" clip-rule="evenodd" d="M203.32 200.312L203.321 225.487C202.592 225.378 201.842 225.284 201.07 225.204L200.486 225.147C191.646 224.327 190.555 217.841 197.212 205.69L203.32 200.312Z" fill="#A1BDD5"/>
<path fill-rule="evenodd" clip-rule="evenodd" d="M180.924 156.082L158.948 158.094C158.669 158.119 158.443 158.424 158.443 158.775C158.443 159.126 158.669 159.389 158.948 159.362L180.924 157.295C181.203 157.269 181.429 156.976 181.429 156.642C181.429 156.307 181.203 156.057 180.924 156.082Z" fill="#506D7C"/>
<path fill-rule="evenodd" clip-rule="evenodd" d="M121.774 205.337H115.754C113.335 205.337 111.375 207.297 111.375 209.716V267.729C111.375 270.147 113.335 272.108 115.754 272.108H121.774V205.337Z" fill="#697084"/>
<path fill-rule="evenodd" clip-rule="evenodd" d="M212.078 205.337L224.642 207.07C226.538 207.332 227.95 208.952 227.95 210.865V267.01C227.95 268.974 226.466 270.619 224.513 270.821L212.078 272.108V205.337Z" fill="#585F74"/>
<path fill-rule="evenodd" clip-rule="evenodd" d="M212.078 205.337H206.058C203.64 205.337 201.679 207.297 201.679 209.716V267.729C201.679 270.147 203.64 272.108 206.058 272.108H212.078V205.337Z" fill="#697084"/>
<path d="M272.007 36.1217H115.48C111.853 36.1217 108.912 39.0621 108.912 42.6892V72.2433H278.575V42.6892C278.575 39.0621 275.634 36.1217 272.007 36.1217ZM272.007 38.3108L272.143 38.3129C274.498 38.385 276.385 40.3167 276.385 42.6892V70.0541H111.101V42.6892C111.101 40.2711 113.062 38.3108 115.48 38.3108H272.007Z" fill="#E9525B"/>
<path d="M194.838 41.1262V140.656H192.649V41.1262H194.838Z" fill="#E9525B"/>
<path d="M111.101 41.1262V193.479C111.101 195.851 112.988 197.783 115.343 197.855L115.48 197.857H117.669V200.046H115.48C111.908 200.046 109.003 197.196 108.914 193.646L108.912 193.479V41.1262H111.101Z" fill="#E9525B"/>
<path d="M278.575 41.1262V193.479C278.575 197.05 275.724 199.956 272.174 200.044L272.007 200.046H220.568V197.857H272.007C274.38 197.857 276.311 195.97 276.383 193.615L276.386 193.479V41.1262H278.575Z" fill="#E9525B"/>
<path fill-rule="evenodd" clip-rule="evenodd" d="M235.733 62.9392C236.578 62.9392 237.351 62.7744 238.053 62.4448C238.755 62.1152 239.352 61.6486 239.844 61.045C240.337 60.4414 240.712 59.7286 240.971 58.9065C241.229 58.0845 241.358 57.1811 241.358 56.1962C241.358 54.8619 241.127 53.7083 240.663 52.7354C240.199 51.7624 239.547 51.0198 238.706 50.5075C237.864 49.9953 236.886 49.7391 235.769 49.7391C234.801 49.7391 233.989 49.9079 233.332 50.2454C232.675 50.583 232.031 51.0695 231.399 51.7048V46.7369C231.399 46.1412 231.26 45.6826 230.981 45.3609C230.702 45.0393 230.304 44.8784 229.787 44.8784C229.294 44.8784 228.911 45.0472 228.636 45.3847C228.361 45.7223 228.223 46.2207 228.223 46.8799V61.0807C228.223 61.6923 228.365 62.1549 228.648 62.4687C228.931 62.7824 229.311 62.9392 229.787 62.9392C230.254 62.9392 230.64 62.7824 230.944 62.4687C231.247 62.1549 231.399 61.6923 231.399 61.0807V60.7591C231.769 61.1721 232.066 61.4818 232.292 61.6883C232.517 61.8948 232.79 62.0954 233.11 62.29C233.431 62.4846 233.818 62.6414 234.274 62.7605C234.729 62.8797 235.216 62.9392 235.733 62.9392ZM235.168 60.2028C234.238 60.2028 233.486 59.8582 232.914 59.1692C232.341 58.4801 232.054 57.4938 232.054 56.2102C232.054 55.3361 232.189 54.5821 232.458 53.9482C232.727 53.3143 233.096 52.83 233.565 52.4953C234.034 52.1606 234.569 51.9933 235.168 51.9933C235.753 51.9933 236.264 52.1606 236.702 52.4953C237.14 52.83 237.479 53.3044 237.717 53.9187C237.955 54.5329 238.075 55.2653 238.075 56.1157C238.075 57.4308 237.788 58.4408 237.215 59.1456C236.643 59.8504 235.96 60.2028 235.168 60.2028Z" fill="#E9525B"/>
<path fill-rule="evenodd" clip-rule="evenodd" d="M150.561 48.1237C152.191 48.1237 153.471 48.312 154.404 48.6885C155.336 49.065 155.995 49.6608 156.379 50.4758C156.74 51.2399 156.932 52.2376 156.954 53.4689L156.957 53.7183L156.951 55.6965L156.929 57.8643C156.929 58.5465 157.045 59.2574 157.276 59.9972L157.4 60.4094C157.548 60.9168 157.622 61.2556 157.622 61.4257C157.622 61.7978 157.443 62.1367 157.086 62.4423C156.728 62.7479 156.323 62.9008 155.87 62.9008C155.49 62.9008 155.114 62.7258 154.743 62.3759C154.372 62.0259 153.978 61.5187 153.562 60.8543C152.666 61.5365 151.799 62.0481 150.962 62.3891C150.125 62.7302 149.185 62.9008 148.144 62.9008C147.194 62.9008 146.359 62.7169 145.639 62.3493C144.92 61.9816 144.365 61.4833 143.976 60.8543C143.587 60.2253 143.392 59.5431 143.392 58.8078C143.392 57.8156 143.713 56.9696 144.356 56.2697C144.959 55.6136 145.772 55.1599 146.796 54.9086L147.302 54.7969L149.357 54.3806C149.939 54.2611 150.462 54.1486 150.925 54.0429L151.152 53.9907C151.817 53.8356 152.539 53.6474 153.318 53.4259C153.272 52.4691 153.075 51.767 152.727 51.3197C152.378 50.8723 151.657 50.6486 150.561 50.6486C149.62 50.6486 148.912 50.777 148.436 51.0339C147.961 51.2909 147.554 51.6762 147.214 52.1901L146.908 52.6456C146.726 52.9104 146.588 53.0974 146.495 53.2067C146.354 53.3705 146.053 53.4525 145.592 53.4525C145.175 53.4525 144.816 53.3218 144.512 53.0605C144.209 52.7991 144.057 52.4647 144.057 52.0572C144.057 51.4193 144.288 50.7992 144.75 50.1968C145.212 49.5943 145.931 49.0982 146.909 48.7084C147.886 48.3186 149.104 48.1237 150.561 48.1237ZM153.243 55.7859L153.127 55.8279C152.646 55.9966 151.989 56.1735 151.156 56.3585L149.803 56.6572C149.389 56.7511 149.074 56.8268 148.857 56.8842C148.47 56.9862 148.101 57.1859 147.75 57.4833C147.399 57.7806 147.223 58.1955 147.223 58.728C147.223 59.2782 147.43 59.7464 147.842 60.1325C148.255 60.5185 148.795 60.7116 149.463 60.7116C150.174 60.7116 150.831 60.554 151.432 60.239C152.034 59.9239 152.475 59.5179 152.756 59.0209C153.063 58.5012 153.225 57.6648 153.242 56.5118L153.243 56.3051V55.7859Z" fill="#E9525B"/>
<path fill-rule="evenodd" clip-rule="evenodd" d="M539.414 116.384C539.449 134.921 535.025 149.048 526.14 158.766C528.832 174.882 536.269 188.942 548.452 200.946C572.516 192.297 592.264 180.002 607.696 164.061C592.963 143.65 585.558 123.821 585.479 104.574L551.88 111.378L539.414 116.384Z" fill="#FDB4A3"/>
<path fill-rule="evenodd" clip-rule="evenodd" d="M585.724 110.387C587.118 127.807 594.442 145.699 607.696 164.061C592.743 179.508 573.736 191.531 550.677 200.131C549.438 186.262 572.474 173.453 572.474 163.095C572.474 155.87 564.964 150.434 549.945 146.786L549.487 146.676L572.474 137.919L572.475 137.576C572.574 127.409 577.066 117.78 584.792 111.171L585.054 110.949L585.724 110.387Z" fill="#F69883"/>
<path fill-rule="evenodd" clip-rule="evenodd" d="M504.175 197.439C491.493 178.538 488.918 157.937 496.449 135.638C507.746 102.188 524.029 110.592 524.029 76.4732C524.029 53.7273 530.992 40.1862 544.917 35.85L577.362 43.7741L604.224 117.33L563.389 143.248L544.917 151.925C544.688 157.203 544.142 161.032 543.281 163.413C541.723 167.718 528.688 179.06 504.175 197.439Z" fill="#583E40"/>
<path fill-rule="evenodd" clip-rule="evenodd" d="M543.412 163.204C522.888 166.631 507.445 174.816 497.084 187.761C481.542 207.178 441.524 268.187 457.344 299.141C460.889 305.336 465.009 309.107 469.706 310.454C475.132 312.009 485.21 312.006 499.94 310.444C501.601 357.875 495.019 397.574 480.194 429.542C504.012 440.389 520.322 436.429 529.123 417.663C534.07 407.116 532.502 383.482 528.324 352.764C521.352 301.492 495.735 242.477 495.735 230.477C495.735 217.683 511.627 195.258 543.412 163.204Z" fill="#9516E3"/>
<path d="M621.874 379.677C634.106 407.309 637.7 435.818 632.657 465.203H498.491L498.323 463.207C495.677 431.041 496.651 403.435 501.246 380.389L501.389 379.677L522.967 380.754L621.874 379.677Z" fill="#506D7C"/>
<path fill-rule="evenodd" clip-rule="evenodd" d="M475.602 264.678L484.986 231.359L493.663 265.839L475.602 264.678Z" fill="#7E24A8"/>
<path fill-rule="evenodd" clip-rule="evenodd" d="M543.412 163.204C540.387 169.99 535.774 174.744 532.291 180.168L533.032 181.438C538.013 189.915 542.221 195.658 545.656 198.669L547.102 197.982C568.204 187.91 584.506 178.057 596.007 168.422C573.548 203.593 564.567 234.142 569.065 260.072L569.334 261.646C573.74 287.668 578.106 328.654 582.434 384.603H501.295C499.996 384.603 498.943 383.548 498.943 382.246C498.943 382.019 498.976 381.793 499.041 381.575C504.099 364.494 511.163 343.553 509.286 318.752C506.303 279.322 495.305 235.772 495.305 233.429L495.309 233.187C495.405 230.237 497.207 216.429 510.875 197.732C520.268 184.882 532.02 174.273 543.412 163.204Z" fill="#C067F6"/>
<path fill-rule="evenodd" clip-rule="evenodd" d="M500.23 320.169L516.649 313.054L575.757 316.885L515.555 306.487L500.23 310.318V320.169Z" fill="#7E24A8"/>
<path fill-rule="evenodd" clip-rule="evenodd" d="M515.555 306.487L575.757 316.885L516.649 313.054L509.094 316.328C508.871 313.66 508.613 310.977 508.327 308.294L515.555 306.487Z" fill="#7B23D3"/>
<path fill-rule="evenodd" clip-rule="evenodd" d="M602.814 158.569C576.573 194.833 564.976 227.255 568.023 255.836C572.594 298.708 589.602 399.229 578.813 438.847C604.069 444.713 622.353 440.93 633.664 427.499C650.63 407.351 606.397 354.168 620.853 271.847C630.491 216.967 634.761 182.518 633.664 168.501L602.814 158.569Z" fill="#9516E3"/>
<path fill-rule="evenodd" clip-rule="evenodd" d="M633.246 171.157C652.598 176.977 661.249 197.782 659.2 233.569C657.539 262.566 653.331 288.16 646.575 310.354C643.931 319.036 635.336 324.461 626.384 323.096L520.29 306.92L499.979 310.451L490.079 307.839L484.906 267.191L578.844 270.067L633.246 171.157Z" fill="#9516E3"/>
<path fill-rule="evenodd" clip-rule="evenodd" d="M610.784 287.879L543.467 311.96L516.649 306.487L610.784 287.879Z" fill="#7E24A8"/>
<path fill-rule="evenodd" clip-rule="evenodd" d="M575.877 315.713L617.745 321.487L617.899 322.358L618.667 323.227C619.04 327.527 619.535 331.71 620.124 335.775C593.257 331.873 578.508 325.186 575.877 315.713ZM618.515 229.31L618.994 229.318L611.879 288.426L612.115 289.756L610.785 288.426L591.084 292.859C592.86 282.531 592.45 269.812 593.271 256.135C594.344 238.255 602.602 229.312 618.044 229.307L618.515 229.31Z" fill="#7E24A8"/>
<path fill-rule="evenodd" clip-rule="evenodd" d="M594.57 272.876C601.423 266.799 607.74 265.856 613.521 270.048L611.721 288.91L590.534 292.657C593.225 287.869 594.57 284.771 594.57 283.361C594.57 281.951 594.57 278.456 594.57 272.876Z" fill="#FDB4A3"/>
<path fill-rule="evenodd" clip-rule="evenodd" d="M613.521 269.818C609.872 281.129 602.575 288.791 591.629 292.804L611.879 288.973L613.521 269.818Z" fill="#F69883"/>
<path d="M495.559 201.651C495.946 201.187 496.636 201.125 497.101 201.512C497.565 201.9 497.627 202.59 497.24 203.054L496.728 203.671C489.562 212.361 486.001 218.941 486.001 223.262C486.001 227.888 488.872 241.697 494.593 264.478C494.741 265.064 494.385 265.659 493.798 265.806C493.212 265.954 492.617 265.598 492.47 265.011L491.958 262.965C486.52 241.176 483.811 228.006 483.811 223.262C483.811 218.169 487.742 211.018 495.559 201.651Z" fill="#5B13A4"/>
<path d="M617.36 229.036C617.435 228.436 617.981 228.01 618.581 228.084C619.181 228.158 619.607 228.705 619.533 229.305L619.026 233.42C616.918 250.615 614.89 268.408 612.942 286.798L612.624 289.813L589.649 294.279C589.055 294.394 588.481 294.006 588.365 293.413C588.255 292.847 588.603 292.297 589.151 292.148L589.231 292.13L610.616 287.973L610.765 286.567C612.792 267.429 614.906 248.937 617.106 231.092L617.36 229.036Z" fill="#5B13A4"/>
<path d="M610.245 288.697C610.316 288.097 610.86 287.668 611.461 287.739C622.524 289.049 628.298 293.031 628.298 299.772C628.298 300.376 627.808 300.866 627.203 300.866C626.599 300.866 626.109 300.376 626.109 299.772C626.109 294.424 621.302 291.109 611.203 289.913C610.603 289.842 610.174 289.297 610.245 288.697Z" fill="#5B13A4"/>
<path d="M610.898 288.34C611.166 287.798 611.823 287.577 612.365 287.845C616.735 290.008 618.994 293.294 618.994 297.583C618.994 298.187 618.504 298.677 617.899 298.677C617.295 298.677 616.805 298.187 616.805 297.583C616.805 294.169 615.05 291.617 611.393 289.807C610.852 289.539 610.63 288.882 610.898 288.34Z" fill="#5B13A4"/>
<path d="M522.857 179.301C523.195 178.8 523.876 178.668 524.377 179.006C524.878 179.345 525.01 180.025 524.671 180.526L522.877 183.189C508.76 204.194 500.265 217.984 497.429 224.484C494.607 230.953 497.55 244.303 506.4 264.302C506.644 264.855 506.395 265.501 505.842 265.746C505.289 265.99 504.642 265.74 504.398 265.188L503.859 263.962C495.183 244.084 492.327 230.705 495.423 223.609C498.451 216.668 507.582 201.928 522.857 179.301Z" fill="#67129B"/>
<path d="M589.677 177.591C590.053 177.117 590.742 177.038 591.215 177.414C591.689 177.79 591.768 178.479 591.392 178.952C573.143 201.926 566.144 229.54 570.394 261.865C570.473 262.465 570.051 263.015 569.452 263.093C568.852 263.172 568.302 262.75 568.224 262.151C563.898 229.254 571.049 201.044 589.677 177.591Z" fill="#67129B"/>
<path d="M577.896 178.996C578.403 178.666 579.081 178.809 579.411 179.316C579.741 179.822 579.598 180.501 579.092 180.831L576.253 182.674C567.464 188.358 560.573 192.602 555.576 195.409L555.057 195.7C548.742 199.213 545.795 200.385 544.592 199.106L544.546 199.055C543.35 197.669 538.891 191.538 531.081 180.548C530.731 180.055 530.847 179.371 531.34 179.021C531.832 178.671 532.516 178.787 532.866 179.279L536.845 184.864C541.697 191.653 544.734 195.808 545.92 197.282L546.032 197.421L546.116 197.411C546.472 197.359 547.006 197.199 547.697 196.927L548.022 196.796C549.472 196.197 551.466 195.192 553.993 193.787L554.758 193.358C560.216 190.278 567.931 185.49 577.896 178.996Z" fill="#67129B"/>
<path d="M515.565 307.282C515.646 306.71 516.154 306.304 516.72 306.342L516.802 306.35L618.052 320.58C618.65 320.664 619.067 321.217 618.983 321.816C618.903 322.387 618.395 322.793 617.828 322.756L617.747 322.748L516.497 308.518C515.898 308.434 515.481 307.88 515.565 307.282Z" fill="#5B13A4"/>
<path fill-rule="evenodd" clip-rule="evenodd" d="M512.271 266.934C505.565 257.886 501.243 252.349 499.307 250.321C497.37 248.294 488.774 249.688 473.517 254.504L465.203 264.239C469.278 265.195 473.132 264.074 475.358 261.286L476.719 259.581L491.831 257.49" fill="#FDB4A3"/>
<path fill-rule="evenodd" clip-rule="evenodd" d="M492.386 259.758L483.219 257.082L474.917 259.758L472.318 266.934H474.83C477.818 266.934 479.952 264.877 479.941 262.008L487.189 262.925L499.136 265.919" fill="#FDB4A3"/>
<path fill-rule="evenodd" clip-rule="evenodd" d="M477.425 260.651L476.149 264.676L512.271 266.934L498.139 253.799H477.673L477.425 260.651Z" fill="#FDB4A3"/>
<path d="M481.121 264.745L590.194 269.32C592.195 269.404 593.972 270.629 594.768 272.471C595.603 274.403 596.007 277.048 596.007 280.424C596.007 285.363 594.486 289.49 591.446 292.744C590.734 293.507 589.812 294.037 588.799 294.27L588.608 294.31L505.378 310.151C504.784 310.264 504.211 309.874 504.098 309.28C503.99 308.714 504.34 308.166 504.889 308.019L504.969 308.001L588.198 292.159C588.829 292.039 589.406 291.721 589.846 291.25C592.495 288.414 593.818 284.825 593.818 280.424C593.818 277.321 593.456 274.954 592.759 273.339C592.313 272.307 591.339 271.61 590.231 271.516L590.102 271.508L481.029 266.933C480.425 266.908 479.956 266.397 479.981 265.793C480.005 265.217 480.471 264.763 481.039 264.745H481.121Z" fill="#5B13A4"/>
<path d="M548.948 435.371C549.02 434.771 549.565 434.343 550.165 434.415C550.738 434.484 551.154 434.983 551.128 435.551L551.121 435.632L547.718 463.993C547.646 464.593 547.101 465.022 546.501 464.95C545.928 464.881 545.512 464.381 545.538 463.814L545.544 463.732L548.948 435.371Z" fill="#607D8C"/>
<path fill-rule="evenodd" clip-rule="evenodd" d="M516.062 69.2281C520.063 81.0781 521.34 91.7826 519.893 101.341C517.722 115.68 537.396 145.437 544.838 146.452C562.056 141.638 576.73 137.008 588.859 132.563C600.987 128.119 603.517 123.184 596.447 117.76C606.09 112.838 610.912 104.302 610.912 92.1504C610.912 73.9234 586.091 64.1123 585.989 79.1286L574.208 48.6528L547.184 35.85L528.385 44.9839L516.062 69.2281Z" fill="#FDB4A3"/>
<path fill-rule="evenodd" clip-rule="evenodd" d="M589.44 107.27L598.831 126.967C597.057 128.912 593.733 130.777 588.859 132.563C582.653 134.838 575.781 137.16 568.243 139.531L572.474 137.919L572.475 137.576C572.574 127.409 577.066 117.78 584.792 111.171L585.054 110.949L589.44 107.27Z" fill="#FDB4A3"/>
<path fill-rule="evenodd" clip-rule="evenodd" d="M589.44 107.27L598.831 126.967C597.057 128.912 593.733 130.777 588.859 132.563C582.653 134.838 575.781 137.16 568.243 139.531L572.474 137.919L572.475 137.576C572.574 127.409 577.066 117.78 584.792 111.171L585.054 110.949L589.44 107.27Z" fill="#F69883"/>
<path d="M553.788 116.547C554.285 116.018 555.116 115.992 555.645 116.489C556.174 116.986 556.199 117.817 555.703 118.346C550.327 124.067 543.528 125.807 535.52 123.538C534.822 123.34 534.417 122.614 534.615 121.916C534.812 121.218 535.539 120.813 536.237 121.011C543.319 123.017 549.098 121.538 553.788 116.547Z" fill="#583E40"/>
<path d="M526.14 93.1336C527.496 93.1336 528.596 91.4215 528.596 89.3095C528.596 87.1974 527.496 85.4853 526.14 85.4853C524.783 85.4853 523.684 87.1974 523.684 89.3095C523.684 91.4215 524.783 93.1336 526.14 93.1336Z" fill="#583E40"/>
<path d="M551.792 92.5874C553.149 92.5874 554.248 90.8752 554.248 88.7632C554.248 86.6511 553.149 84.939 551.792 84.939C550.436 84.939 549.336 86.6511 549.336 88.7632C549.336 90.8752 550.436 92.5874 551.792 92.5874Z" fill="#583E40"/>
<path d="M537.061 89.4791C537.269 88.7842 538.001 88.3894 538.696 88.5975C539.391 88.8055 539.786 89.5375 539.578 90.2325L538.851 92.65C536.729 99.6721 535.137 104.62 534.068 107.515L533.9 107.963L533.941 108.016C535.871 110.474 538.105 111.003 540.971 109.717L541.137 109.641C541.794 109.333 542.576 109.615 542.884 110.272C543.192 110.929 542.91 111.711 542.253 112.019C537.903 114.059 534.118 112.968 531.332 108.898C531.085 108.536 531.034 108.076 531.196 107.669L531.396 107.158C532.537 104.172 534.43 98.2674 537.061 89.4791Z" fill="#583E40"/>
<path fill-rule="evenodd" clip-rule="evenodd" d="M561.685 78.4019L560.902 78.0818L560.131 77.7704C552.443 74.6836 547.945 73.4684 546.636 74.1248C544.344 75.2742 547.576 78.7777 553.314 79.4569C556.014 79.7765 558.626 79.8739 561.15 79.749L561.57 79.7261C562.144 79.6919 562.473 79.34 562.304 78.94C562.212 78.7226 561.985 78.5251 561.685 78.4019Z" fill="#583E40"/>
<path fill-rule="evenodd" clip-rule="evenodd" d="M518.936 78.7888L519.588 78.4989L520.23 78.2173L520.805 77.9685C526.857 75.3656 530.432 74.4023 531.53 75.0785C533.511 76.2996 530.898 79.6602 526.063 80.131C523.788 80.3526 521.579 80.3568 519.437 80.1437L519.08 80.1061C518.593 80.052 518.303 79.6913 518.432 79.3006C518.502 79.0882 518.687 78.9003 518.936 78.7888Z" fill="#583E40"/>
<path fill-rule="evenodd" clip-rule="evenodd" d="M542.05 57.1717C535.34 63.87 526.93 69.9747 516.822 75.4857C509.056 70.22 499.851 34.589 530.898 21.8233C561.946 9.05756 595.572 21.2815 595.572 33.9617C613.345 37.4336 621.603 49.3741 620.346 69.7832C618.46 100.397 596.551 148.63 587.91 107.709C596.388 99.2217 599.269 92.1755 596.551 86.5705C592.475 78.1629 581.361 77.8369 577.984 86.5705C577.065 90.5001 576.606 92.4649 576.606 92.4649C570.693 84.2649 569.158 76.8499 572.001 70.22C558.843 71.0419 548.859 66.6925 542.05 57.1717Z" fill="#583E40"/>
<path d="M576.689 133.505C577.165 133.132 577.853 133.215 578.226 133.69C578.599 134.166 578.517 134.854 578.041 135.227C571.594 140.29 560.608 144.372 545.055 147.524C544.463 147.644 543.885 147.262 543.765 146.669C543.645 146.077 544.028 145.499 544.62 145.379L545.63 145.171C560.341 142.111 570.703 138.206 576.689 133.505Z" fill="#583E40"/>
<path d="M582.936 85.4513C589.16 83.3445 593.017 85.9968 593.776 92.8162C593.856 93.5372 593.337 94.1867 592.616 94.2669C591.895 94.3472 591.245 93.8278 591.165 93.1068L591.12 92.7375C590.479 87.8391 588.258 86.4231 583.778 87.9396C583.091 88.1722 582.346 87.8037 582.113 87.1166C581.88 86.4295 582.249 85.6839 582.936 85.4513Z" fill="#583E40"/>
<path fill-rule="evenodd" clip-rule="evenodd" d="M619.031 80.3004C618.098 96.3806 624.157 111.979 637.208 127.097C656.784 149.772 658.42 168.816 646.192 187.543C637.507 174.537 621.068 166.832 596.874 164.43C572.68 162.028 569.694 143.027 587.914 107.427L605.184 91.1508L619.031 80.3004Z" fill="#583E40"/>
<path d="M177.324 81.4714V83.6606H128.818V81.4714H177.324Z" fill="#E9525B"/>
<path d="M142.23 89.7569V91.9461H128.818V89.7569H142.23ZM160.906 89.7569V91.9461H152.814V89.7569H160.906Z" fill="#E9525B"/>
<path d="M162.986 109.186V111.375H128.818V109.186H162.986ZM177.324 109.186V111.375H170.16V109.186H177.324Z" fill="#E9525B"/>
<path d="M160.906 117.471V119.661H128.818V117.471H160.906Z" fill="#E9525B"/>
<path d="M151.527 137.098V139.287H128.818V137.098H151.527ZM177.324 137.098V139.287H159.79V137.098H177.324Z" fill="#E9525B"/>
<path d="M160.906 145.384V147.573H128.818V145.384H160.906Z" fill="#E9525B"/>
<path d="M263.594 81.4714V83.6606H215.088V81.4714H263.594Z" fill="#E9525B"/>
<path d="M230.271 89.7569V91.9461H215.088V89.7569H230.271ZM247.176 89.7569V91.9461H235.912V89.7569H247.176Z" fill="#E9525B"/>
<path d="M229.794 109.186V111.375H215.088V109.186H229.794ZM263.594 109.186V111.375H238.632V109.186H263.594Z" fill="#E9525B"/>
<path d="M247.176 117.471V119.661H215.088V117.471H247.176Z" fill="#E9525B"/>
<path d="M263.594 137.098V139.287H215.088V137.098H263.594Z" fill="#E9525B"/>
<path d="M233.708 145.384V147.573H215.088V145.384H233.708ZM247.176 145.384V147.573H240.708V145.384H247.176Z" fill="#E9525B"/>
<path d="M363.909 129.867L305.641 146.859C304.669 147.142 304.57 148.481 305.49 148.904L342.425 165.896C342.664 166.006 342.936 166.026 343.189 165.952L401.456 148.96C402.428 148.677 402.527 147.338 401.607 146.915L364.673 129.923C364.433 129.813 364.162 129.793 363.909 129.867ZM364.129 132.083L398.029 147.678L342.968 163.736L309.067 148.139L364.129 132.083Z" fill="#6F97F8"/>
<path d="M352.535 36.7838C352.902 35.9294 354.086 35.9018 354.506 36.7012L354.546 36.7838L402.147 147.477L400.135 148.342L353.54 39.9872L306.945 148.342L304.934 147.477L352.535 36.7838Z" fill="#6F97F8"/>
<path d="M416.602 33.1832C427.339 28.4842 432.896 35.1802 433.006 52.075L433.007 52.5901C433.007 56.001 432.949 59.0635 432.814 63.41L432.599 69.9312C432.268 80.424 432.332 84.1097 433.019 88.2741C433.947 93.9011 436.041 96.992 439.938 98.1622C440.894 98.4492 440.998 99.761 440.1 100.196C434.553 102.881 431.679 113.945 431.84 133.343L431.864 135.858C431.981 150.965 431.338 159.148 429.464 164.349C427.409 170.056 423.754 172.342 417.288 172.399H417.041V170.21C427.547 170.21 429.906 164.244 429.674 135.732L429.657 133.958C429.448 115.603 431.837 104.158 437.09 99.5923L437.271 99.438L437.113 99.3545C433.745 97.5257 431.807 94.0829 430.907 88.914L430.812 88.3441C430.123 84.015 430.079 80.1358 430.432 69.1909L430.614 63.722C430.753 59.3193 430.815 56.2467 430.818 52.8795L430.818 52.5901C430.818 36.8063 426.55 31.3662 417.748 35.0736L417.48 35.1888L416.602 33.1832Z" fill="#E9525B"/>
<path d="M409.334 31.2697H406.598C405.993 31.2697 405.503 31.7598 405.503 32.3643C405.503 32.9689 405.993 33.4589 406.598 33.4589H409.334C409.939 33.4589 410.429 32.9689 410.429 32.3643C410.429 31.7598 409.939 31.2697 409.334 31.2697ZM399.483 31.2697H396.746C396.142 31.2697 395.652 31.7598 395.652 32.3643C395.652 32.9689 396.142 33.4589 396.746 33.4589H399.483C400.087 33.4589 400.577 32.9689 400.577 32.3643C400.577 31.7598 400.087 31.2697 399.483 31.2697ZM389.631 31.2697H386.895C386.29 31.2697 385.8 31.7598 385.8 32.3643C385.8 32.9689 386.29 33.4589 386.895 33.4589H389.631C390.236 33.4589 390.726 32.9689 390.726 32.3643C390.726 31.7598 390.236 31.2697 389.631 31.2697ZM379.78 31.2697H377.044C376.439 31.2697 375.949 31.7598 375.949 32.3643C375.949 32.9689 376.439 33.4589 377.044 33.4589H379.78C380.385 33.4589 380.875 32.9689 380.875 32.3643C380.875 31.7598 380.385 31.2697 379.78 31.2697ZM369.929 31.2697H367.192C366.588 31.2697 366.098 31.7598 366.098 32.3643C366.098 32.9689 366.588 33.4589 367.192 33.4589H369.929C370.533 33.4589 371.023 32.9689 371.023 32.3643C371.023 31.7598 370.533 31.2697 369.929 31.2697ZM360.077 31.2697H357.341C356.736 31.2697 356.246 31.7598 356.246 32.3643C356.246 32.9689 356.736 33.4589 357.341 33.4589H360.077C360.682 33.4589 361.172 32.9689 361.172 32.3643C361.172 31.7598 360.682 31.2697 360.077 31.2697ZM350.226 31.2697H347.489C346.885 31.2697 346.395 31.7598 346.395 32.3643C346.395 32.9689 346.885 33.4589 347.489 33.4589H350.226C350.83 33.4589 351.321 32.9689 351.321 32.3643C351.321 31.7598 350.83 31.2697 350.226 31.2697Z" fill="#E9525B"/>
<path d="M409.177 170.21H406.441C405.836 170.21 405.346 170.7 405.346 171.304C405.346 171.909 405.836 172.399 406.441 172.399H409.177C409.782 172.399 410.272 171.909 410.272 171.304C410.272 170.7 409.782 170.21 409.177 170.21ZM399.326 170.21H396.589C395.985 170.21 395.495 170.7 395.495 171.304C395.495 171.909 395.985 172.399 396.589 172.399H399.326C399.93 172.399 400.42 171.909 400.42 171.304C400.42 170.7 399.93 170.21 399.326 170.21ZM389.474 170.21H386.738C386.133 170.21 385.643 170.7 385.643 171.304C385.643 171.909 386.133 172.399 386.738 172.399H389.474C390.079 172.399 390.569 171.909 390.569 171.304C390.569 170.7 390.079 170.21 389.474 170.21ZM379.623 170.21H376.886C376.282 170.21 375.792 170.7 375.792 171.304C375.792 171.909 376.282 172.399 376.886 172.399H379.623C380.227 172.399 380.717 171.909 380.717 171.304C380.717 170.7 380.227 170.21 379.623 170.21ZM369.772 170.21H367.035C366.431 170.21 365.94 170.7 365.94 171.304C365.94 171.909 366.431 172.399 367.035 172.399H369.772C370.376 172.399 370.866 171.909 370.866 171.304C370.866 170.7 370.376 170.21 369.772 170.21ZM359.92 170.21H357.184C356.579 170.21 356.089 170.7 356.089 171.304C356.089 171.909 356.579 172.399 357.184 172.399H359.92C360.525 172.399 361.015 171.909 361.015 171.304C361.015 170.7 360.525 170.21 359.92 170.21ZM350.069 170.21H347.332C346.728 170.21 346.238 170.7 346.238 171.304C346.238 171.909 346.728 172.399 347.332 172.399H350.069C350.673 172.399 351.163 171.909 351.163 171.304C351.163 170.7 350.673 170.21 350.069 170.21Z" fill="#E9525B"/>
<path d="M246.284 233.149V316.338C246.284 316.943 246.774 317.433 247.379 317.433H384.203C385.31 317.433 385.718 315.978 384.772 315.403L247.947 232.214C247.218 231.77 246.284 232.295 246.284 233.149ZM248.473 235.095L380.296 315.244H248.473V235.095Z" fill="#6F97F8"/>
<path d="M259.419 303.203H247.379C246.774 303.203 246.284 303.693 246.284 304.298V316.338C246.284 316.943 246.774 317.433 247.379 317.433H259.419C260.024 317.433 260.514 316.943 260.514 316.338V304.298C260.514 303.693 260.024 303.203 259.419 303.203ZM258.325 305.392V315.244H248.473V305.392H258.325Z" fill="#6F97F8"/>
<path d="M339.051 204.142C313.51 204.142 292.804 224.847 292.804 250.389C292.804 275.93 313.51 296.635 339.051 296.635C364.592 296.635 385.298 275.93 385.298 250.389C385.298 224.847 364.592 204.142 339.051 204.142ZM339.051 206.331C363.383 206.331 383.109 226.057 383.109 250.389C383.109 274.721 363.383 294.446 339.051 294.446C314.719 294.446 294.994 274.721 294.994 250.389C294.994 226.057 314.719 206.331 339.051 206.331Z" fill="#E9525B"/>
<path d="M338.23 206.331V209.068C338.23 209.672 338.72 210.162 339.325 210.162C339.929 210.162 340.419 209.672 340.419 209.068V206.331C340.419 205.727 339.929 205.237 339.325 205.237C338.72 205.237 338.23 205.727 338.23 206.331ZM338.23 216.183V218.919C338.23 219.524 338.72 220.014 339.325 220.014C339.929 220.014 340.419 219.524 340.419 218.919V216.183C340.419 215.578 339.929 215.088 339.325 215.088C338.72 215.088 338.23 215.578 338.23 216.183ZM338.23 226.034V228.771C338.23 229.375 338.72 229.865 339.325 229.865C339.929 229.865 340.419 229.375 340.419 228.771V226.034C340.419 225.43 339.929 224.939 339.325 224.939C338.72 224.939 338.23 225.43 338.23 226.034ZM338.23 235.885V238.622C338.23 239.226 338.72 239.716 339.325 239.716C339.929 239.716 340.419 239.226 340.419 238.622V235.885C340.419 235.281 339.929 234.791 339.325 234.791C338.72 234.791 338.23 235.281 338.23 235.885ZM338.23 245.737V248.473C338.23 249.078 338.72 249.568 339.325 249.568C339.929 249.568 340.419 249.078 340.419 248.473V245.737C340.419 245.132 339.929 244.642 339.325 244.642C338.72 244.642 338.23 245.132 338.23 245.737ZM344.25 251.757H346.987C347.591 251.757 348.081 251.267 348.081 250.662C348.081 250.058 347.591 249.568 346.987 249.568H344.25C343.646 249.568 343.156 250.058 343.156 250.662C343.156 251.267 343.646 251.757 344.25 251.757ZM354.102 251.757H356.838C357.443 251.757 357.933 251.267 357.933 250.662C357.933 250.058 357.443 249.568 356.838 249.568H354.102C353.497 249.568 353.007 250.058 353.007 250.662C353.007 251.267 353.497 251.757 354.102 251.757ZM363.953 251.757H366.69C367.294 251.757 367.784 251.267 367.784 250.662C367.784 250.058 367.294 249.568 366.69 249.568H363.953C363.349 249.568 362.859 250.058 362.859 250.662C362.859 251.267 363.349 251.757 363.953 251.757ZM373.804 251.757H376.541C377.146 251.757 377.636 251.267 377.636 250.662C377.636 250.058 377.146 249.568 376.541 249.568H373.804C373.2 249.568 372.71 250.058 372.71 250.662C372.71 251.267 373.2 251.757 373.804 251.757Z" fill="#E9525B"/>
<path fill-rule="evenodd" clip-rule="evenodd" d="M346.462 193.196C346.765 193.196 347.02 193.11 347.225 192.936C347.431 192.763 347.534 192.556 347.534 192.316C347.534 192.101 347.395 191.79 347.116 191.382L344.918 188.301L346.796 185.828C346.968 185.61 347.095 185.422 347.178 185.263C347.261 185.103 347.303 184.937 347.303 184.764C347.303 184.524 347.201 184.318 346.998 184.148C346.795 183.977 346.539 183.892 346.23 183.892C345.962 183.892 345.737 183.965 345.557 184.11C345.377 184.255 345.164 184.496 344.918 184.831L343.442 186.859L341.924 184.831C341.684 184.507 341.474 184.269 341.293 184.118C341.113 183.968 340.886 183.892 340.611 183.892C340.297 183.892 340.042 183.979 339.848 184.152C339.654 184.325 339.556 184.529 339.556 184.764C339.556 185.066 339.719 185.42 340.045 185.828L341.924 188.301L339.805 191.268C339.485 191.715 339.325 192.059 339.325 192.299C339.325 192.534 339.429 192.742 339.638 192.924C339.847 193.105 340.1 193.196 340.397 193.196C340.666 193.196 340.887 193.124 341.062 192.978C341.236 192.833 341.449 192.59 341.701 192.249L343.442 189.81L345.141 192.249C345.381 192.579 345.594 192.819 345.78 192.97C345.966 193.121 346.193 193.196 346.462 193.196ZM361.217 185.534C361.217 184.929 360.727 184.439 360.122 184.439H353.554C352.95 184.439 352.46 184.929 352.46 185.534C352.46 186.139 352.95 186.629 353.554 186.629H360.122C360.727 186.629 361.217 186.139 361.217 185.534ZM361.217 188.818C361.217 188.213 360.727 187.723 360.122 187.723H353.554C352.95 187.723 352.46 188.213 352.46 188.818C352.46 189.422 352.95 189.912 353.554 189.912H360.122C360.727 189.912 361.217 189.422 361.217 188.818ZM374.328 193.196C374.704 193.196 374.984 193.099 375.169 192.906C375.354 192.713 375.446 192.476 375.446 192.198C375.446 191.885 375.33 191.637 375.096 191.455C374.863 191.273 374.525 191.182 374.081 191.182H369.626C369.739 191.009 369.851 190.856 369.962 190.723L370.044 190.627C370.323 190.289 370.807 189.831 371.498 189.252L372.602 188.342C373.053 187.967 373.398 187.672 373.637 187.457C374.001 187.13 374.358 186.678 374.708 186.1C375.058 185.523 375.233 184.881 375.233 184.176C375.233 183.726 375.149 183.292 374.981 182.874C374.813 182.456 374.579 182.088 374.277 181.769C373.976 181.45 373.626 181.2 373.227 181.018C372.613 180.745 371.87 180.608 371 180.608C370.277 180.608 369.647 180.715 369.109 180.928C368.572 181.142 368.128 181.422 367.778 181.769C367.428 182.116 367.165 182.503 366.988 182.93C366.812 183.356 366.724 183.766 366.724 184.159C366.724 184.483 366.818 184.739 367.005 184.927C367.193 185.114 367.429 185.208 367.714 185.208C368.038 185.208 368.284 185.106 368.452 184.901C368.62 184.696 368.771 184.403 368.904 184.022L368.98 183.811C369.075 183.553 369.145 183.39 369.19 183.322C369.617 182.668 370.203 182.341 370.949 182.341C371.301 182.341 371.627 182.42 371.926 182.58C372.224 182.739 372.461 182.962 372.634 183.25C372.808 183.537 372.894 183.863 372.894 184.227C372.894 184.562 372.813 184.905 372.651 185.255C372.489 185.605 372.253 185.946 371.943 186.279C371.633 186.612 371.244 186.943 370.778 187.273C370.516 187.45 370.081 187.818 369.472 188.379C368.863 188.939 368.18 189.612 367.424 190.397C367.242 190.59 367.074 190.856 366.92 191.195C366.766 191.533 366.69 191.805 366.69 192.01C366.69 192.329 366.809 192.606 367.048 192.842C367.287 193.078 367.62 193.196 368.047 193.196H374.328ZM384.153 193.196C384.448 193.196 384.713 193.1 384.947 192.907C385.181 192.715 385.298 192.502 385.298 192.267C385.298 192.134 385.222 191.834 385.071 191.368C384.92 190.902 384.845 190.455 384.845 190.025L384.86 188.438C384.862 188.138 384.863 187.797 384.863 187.415C384.863 186.567 384.737 185.886 384.485 185.373C384.234 184.86 383.803 184.485 383.194 184.248C382.584 184.011 381.747 183.892 380.681 183.892C379.728 183.892 378.932 184.015 378.293 184.26C377.654 184.506 377.183 184.818 376.881 185.197C376.58 185.577 376.429 185.967 376.429 186.369C376.429 186.625 376.528 186.836 376.726 187C376.924 187.165 377.16 187.247 377.432 187.247C377.734 187.247 377.931 187.196 378.022 187.092L378.093 187.007C378.187 186.889 378.32 186.704 378.493 186.452C378.715 186.129 378.981 185.886 379.292 185.724C379.603 185.563 380.066 185.482 380.681 185.482C381.397 185.482 381.869 185.623 382.097 185.904C382.325 186.186 382.454 186.628 382.483 187.231C381.974 187.37 381.502 187.488 381.067 187.586L380.725 187.661C380.605 187.687 380.48 187.713 380.349 187.74L378.355 188.134C377.621 188.285 377.044 188.58 376.624 189.021C376.204 189.462 375.994 189.994 375.994 190.619C375.994 191.082 376.121 191.512 376.375 191.908C376.63 192.304 376.992 192.617 377.463 192.849C377.934 193.08 378.48 193.196 379.101 193.196C379.782 193.196 380.396 193.089 380.943 192.874C381.491 192.659 382.057 192.337 382.643 191.908C382.916 192.326 383.173 192.645 383.416 192.866C383.658 193.086 383.904 193.196 384.153 193.196ZM380.155 191.554C379.731 191.554 379.387 191.447 379.124 191.233C378.862 191.018 378.73 190.758 378.73 190.452C378.73 190.156 378.842 189.926 379.065 189.761C379.289 189.596 379.524 189.485 379.77 189.428L380.081 189.361C380.238 189.328 380.43 189.29 380.655 189.246L381.098 189.162C381.738 189.041 382.226 188.926 382.561 188.818V189.106C382.561 189.806 382.458 190.309 382.251 190.615C382.072 190.891 381.791 191.117 381.409 191.292C381.026 191.467 380.608 191.554 380.155 191.554ZM391.711 193.743C392.31 193.743 392.858 193.624 393.355 193.384C393.852 193.144 394.275 192.805 394.624 192.366C394.973 191.927 395.239 191.408 395.422 190.811C395.605 190.213 395.696 189.556 395.696 188.839C395.696 187.869 395.532 187.03 395.204 186.322C394.875 185.615 394.413 185.075 393.817 184.702C393.221 184.33 392.528 184.143 391.738 184.143C391.052 184.143 390.476 184.266 390.011 184.512C389.546 184.757 389.09 185.111 388.642 185.573V181.96C388.642 181.527 388.543 181.193 388.346 180.959C388.148 180.725 387.866 180.608 387.5 180.608C387.151 180.608 386.879 180.731 386.684 180.977C386.49 181.222 386.392 181.584 386.392 182.064V192.392C386.392 192.837 386.493 193.173 386.693 193.401C386.894 193.629 387.163 193.743 387.5 193.743C387.831 193.743 388.104 193.629 388.319 193.401C388.535 193.173 388.642 192.837 388.642 192.392V192.158L388.829 192.369C389.006 192.566 389.154 192.721 389.274 192.834C389.434 192.984 389.627 193.13 389.854 193.271C390.081 193.413 390.356 193.527 390.678 193.613C391.001 193.7 391.345 193.743 391.711 193.743ZM391.394 192.102C390.717 192.102 390.17 191.826 389.754 191.275C389.337 190.723 389.129 189.934 389.129 188.908C389.129 188.208 389.227 187.605 389.422 187.098C389.618 186.591 389.887 186.203 390.228 185.936C390.569 185.668 390.957 185.534 391.394 185.534C391.819 185.534 392.19 185.668 392.509 185.936C392.828 186.203 393.074 186.583 393.247 187.074C393.421 187.566 393.507 188.152 393.507 188.832C393.507 189.884 393.299 190.692 392.882 191.256C392.466 191.82 391.969 192.102 391.394 192.102ZM404.361 189.365C404.765 189.365 405.063 189.264 405.257 189.061C405.451 188.858 405.548 188.596 405.548 188.275C405.548 187.948 405.45 187.683 405.253 187.48C405.057 187.277 404.759 187.176 404.361 187.176H401.809C401.411 187.176 401.113 187.277 400.917 187.48C400.72 187.683 400.622 187.948 400.622 188.275C400.622 188.596 400.723 188.858 400.925 189.061C401.127 189.264 401.422 189.365 401.809 189.365H404.361ZM414.715 193.743C415.388 193.743 416.002 193.634 416.558 193.415C417.114 193.195 417.594 192.891 417.999 192.503C418.404 192.114 418.71 191.671 418.918 191.174C419.126 190.677 419.23 190.163 419.23 189.631C419.23 189.187 419.153 188.773 418.999 188.39C418.845 188.007 418.616 187.658 418.311 187.342C418.006 187.027 417.631 186.746 417.186 186.501C417.648 186.103 418.003 185.695 418.251 185.278C418.499 184.86 418.623 184.358 418.623 183.774C418.623 183.329 418.538 182.914 418.367 182.529C418.195 182.143 417.942 181.804 417.605 181.511C417.269 181.219 416.873 180.996 416.417 180.841C415.961 180.686 415.456 180.608 414.903 180.608C414.27 180.608 413.697 180.7 413.184 180.885C412.671 181.069 412.242 181.313 411.897 181.617C411.552 181.921 411.29 182.241 411.111 182.577C410.931 182.913 410.841 183.233 410.841 183.537C410.841 183.853 410.937 184.105 411.128 184.295C411.319 184.485 411.528 184.58 411.756 184.58C411.95 184.58 412.121 184.545 412.269 184.475C412.418 184.405 412.52 184.309 412.577 184.186C412.674 183.958 412.781 183.715 412.898 183.458C413.015 183.201 413.139 182.99 413.27 182.827C413.401 182.663 413.579 182.532 413.804 182.432C414.029 182.333 414.316 182.283 414.664 182.283C415.177 182.283 415.584 182.445 415.887 182.77C416.189 183.094 416.34 183.481 416.34 183.932C416.34 184.522 416.15 184.975 415.771 185.291C415.392 185.606 414.94 185.764 414.416 185.764H414.065C413.66 185.764 413.355 185.85 413.15 186.023C412.945 186.195 412.842 186.422 412.842 186.702C412.842 186.989 412.928 187.212 413.099 187.373C413.27 187.534 413.512 187.614 413.826 187.614L413.939 187.609C414.005 187.605 414.093 187.598 414.202 187.587L414.287 187.579C414.527 187.556 414.704 187.544 414.818 187.544C415.468 187.544 415.975 187.739 416.34 188.127C416.705 188.516 416.887 189.052 416.887 189.736C416.887 190.198 416.78 190.604 416.566 190.955C416.353 191.306 416.082 191.57 415.754 191.749C415.426 191.927 415.086 192.016 414.732 192.016C414.116 192.016 413.639 191.819 413.3 191.424C412.961 191.03 412.643 190.426 412.346 189.614C412.301 189.479 412.204 189.364 412.055 189.267C411.907 189.171 411.753 189.122 411.594 189.122C411.274 189.122 411.008 189.226 410.794 189.434C410.58 189.641 410.473 189.915 410.473 190.254C410.473 190.517 410.563 190.85 410.743 191.253C410.922 191.657 411.188 192.047 411.538 192.424C411.889 192.801 412.335 193.115 412.876 193.366C413.418 193.618 414.031 193.743 414.715 193.743ZM425.644 193.743C426.243 193.743 426.791 193.624 427.288 193.384C427.785 193.144 428.208 192.805 428.556 192.366C428.905 191.927 429.171 191.408 429.354 190.811C429.537 190.213 429.629 189.556 429.629 188.839C429.629 187.869 429.465 187.03 429.136 186.322C428.808 185.615 428.346 185.075 427.75 184.702C427.154 184.33 426.461 184.143 425.67 184.143C424.984 184.143 424.409 184.266 423.944 184.512C423.479 184.757 423.022 185.111 422.575 185.573V181.96C422.575 181.527 422.476 181.193 422.278 180.959C422.08 180.725 421.798 180.608 421.432 180.608C421.083 180.608 420.812 180.731 420.617 180.977C420.422 181.222 420.325 181.584 420.325 182.064V192.392C420.325 192.837 420.425 193.173 420.626 193.401C420.826 193.629 421.095 193.743 421.432 193.743C421.764 193.743 422.037 193.629 422.252 193.401C422.467 193.173 422.575 192.837 422.575 192.392V192.158L422.761 192.369C422.938 192.566 423.087 192.721 423.207 192.834C423.367 192.984 423.56 193.13 423.787 193.271C424.013 193.413 424.288 193.527 424.611 193.613C424.933 193.7 425.278 193.743 425.644 193.743ZM424.779 192.102C424.102 192.102 423.556 191.826 423.139 191.275C422.722 190.723 422.514 189.934 422.514 188.908C422.514 188.208 422.612 187.605 422.808 187.098C423.003 186.591 423.272 186.203 423.613 185.936C423.954 185.668 424.343 185.534 424.779 185.534C425.204 185.534 425.576 185.668 425.894 185.936C426.213 186.203 426.459 186.583 426.632 187.074C426.806 187.566 426.892 188.152 426.892 188.832C426.892 189.884 426.684 190.692 426.268 191.256C425.851 191.82 425.355 192.102 424.779 192.102Z" fill="#E9525B"/>
<path d="M470.043 209.833H467.307C466.702 209.833 466.212 210.323 466.212 210.928C466.212 211.533 466.702 212.023 467.307 212.023H470.043C470.648 212.023 471.138 211.533 471.138 210.928C471.138 210.323 470.648 209.833 470.043 209.833ZM460.192 209.833H457.455C456.851 209.833 456.361 210.323 456.361 210.928C456.361 211.533 456.851 212.023 457.455 212.023H460.192C460.796 212.023 461.286 211.533 461.286 210.928C461.286 210.323 460.796 209.833 460.192 209.833ZM450.34 209.833H447.604C446.999 209.833 446.509 210.323 446.509 210.928C446.509 211.533 446.999 212.023 447.604 212.023H450.34C450.945 212.023 451.435 211.533 451.435 210.928C451.435 210.323 450.945 209.833 450.34 209.833ZM440.489 209.833H437.753C437.148 209.833 436.658 210.323 436.658 210.928C436.658 211.533 437.148 212.023 437.753 212.023H440.489C441.094 212.023 441.584 211.533 441.584 210.928C441.584 210.323 441.094 209.833 440.489 209.833ZM430.638 209.833H427.901C427.297 209.833 426.807 210.323 426.807 210.928C426.807 211.533 427.297 212.023 427.901 212.023H430.638C431.242 212.023 431.732 211.533 431.732 210.928C431.732 210.323 431.242 209.833 430.638 209.833ZM420.786 209.833H418.05C417.445 209.833 416.955 210.323 416.955 210.928C416.955 211.533 417.445 212.023 418.05 212.023H420.786C421.391 212.023 421.881 211.533 421.881 210.928C421.881 210.323 421.391 209.833 420.786 209.833ZM410.935 209.833H408.198C407.594 209.833 407.104 210.323 407.104 210.928C407.104 211.533 407.594 212.023 408.198 212.023H410.935C411.54 212.023 412.03 211.533 412.03 210.928C412.03 210.323 411.54 209.833 410.935 209.833ZM404.453 215.392V218.129C404.453 218.733 404.943 219.223 405.548 219.223C406.152 219.223 406.642 218.733 406.642 218.129V215.392C406.642 214.788 406.152 214.298 405.548 214.298C404.943 214.298 404.453 214.788 404.453 215.392ZM404.453 225.244V227.98C404.453 228.585 404.943 229.075 405.548 229.075C406.152 229.075 406.642 228.585 406.642 227.98V225.244C406.642 224.639 406.152 224.149 405.548 224.149C404.943 224.149 404.453 224.639 404.453 225.244ZM404.453 235.095V237.831C404.453 238.436 404.943 238.926 405.548 238.926C406.152 238.926 406.642 238.436 406.642 237.831V235.095C406.642 234.49 406.152 234 405.548 234C404.943 234 404.453 234.49 404.453 235.095ZM404.453 244.946V247.683C404.453 248.287 404.943 248.777 405.548 248.777C406.152 248.777 406.642 248.287 406.642 247.683V244.946C406.642 244.342 406.152 243.852 405.548 243.852C404.943 243.852 404.453 244.342 404.453 244.946ZM404.453 254.798V257.534C404.453 258.139 404.943 258.629 405.548 258.629C406.152 258.629 406.642 258.139 406.642 257.534V254.798C406.642 254.193 406.152 253.703 405.548 253.703C404.943 253.703 404.453 254.193 404.453 254.798ZM404.453 264.649V267.385C404.453 267.99 404.943 268.48 405.548 268.48C406.152 268.48 406.642 267.99 406.642 267.385V264.649C406.642 264.044 406.152 263.554 405.548 263.554C404.943 263.554 404.453 264.044 404.453 264.649ZM404.453 274.5V277.237C404.453 277.841 404.943 278.331 405.548 278.331C406.152 278.331 406.642 277.841 406.642 277.237V274.5C406.642 273.896 406.152 273.406 405.548 273.406C404.943 273.406 404.453 273.896 404.453 274.5ZM404.453 284.352V287.088C404.453 287.693 404.943 288.183 405.548 288.183C406.152 288.183 406.642 287.693 406.642 287.088V284.352C406.642 283.747 406.152 283.257 405.548 283.257C404.943 283.257 404.453 283.747 404.453 284.352ZM404.453 294.203V296.94C404.453 297.544 404.943 298.034 405.548 298.034C406.152 298.034 406.642 297.544 406.642 296.94V294.203C406.642 293.599 406.152 293.108 405.548 293.108C404.943 293.108 404.453 293.599 404.453 294.203ZM404.453 304.054V306.791C404.453 307.395 404.943 307.885 405.548 307.885C406.152 307.885 406.642 307.395 406.642 306.791V304.054C406.642 303.45 406.152 302.96 405.548 302.96C404.943 302.96 404.453 303.45 404.453 304.054ZM404.453 313.906V316.338C404.453 316.943 404.943 317.433 405.548 317.433H405.852C406.456 317.433 406.946 316.943 406.946 316.338C406.946 315.734 406.456 315.244 405.852 315.244H405.548V316.338H406.642V313.906C406.642 313.301 406.152 312.811 405.548 312.811C404.943 312.811 404.453 313.301 404.453 313.906ZM412.967 317.433H415.703C416.308 317.433 416.798 316.943 416.798 316.338C416.798 315.734 416.308 315.244 415.703 315.244H412.967C412.362 315.244 411.872 315.734 411.872 316.338C411.872 316.943 412.362 317.433 412.967 317.433ZM422.818 317.433H425.555C426.159 317.433 426.649 316.943 426.649 316.338C426.649 315.734 426.159 315.244 425.555 315.244H422.818C422.214 315.244 421.724 315.734 421.724 316.338C421.724 316.943 422.214 317.433 422.818 317.433ZM432.669 317.433H435.406C436.01 317.433 436.501 316.943 436.501 316.338C436.501 315.734 436.01 315.244 435.406 315.244H432.669C432.065 315.244 431.575 315.734 431.575 316.338C431.575 316.943 432.065 317.433 432.669 317.433ZM442.521 317.433H445.257C445.862 317.433 446.352 316.943 446.352 316.338C446.352 315.734 445.862 315.244 445.257 315.244H442.521C441.916 315.244 441.426 315.734 441.426 316.338C441.426 316.943 441.916 317.433 442.521 317.433ZM452.372 317.433H455.109C455.713 317.433 456.203 316.943 456.203 316.338C456.203 315.734 455.713 315.244 455.109 315.244H452.372C451.768 315.244 451.278 315.734 451.278 316.338C451.278 316.943 451.768 317.433 452.372 317.433ZM462.224 317.433H464.96C465.565 317.433 466.055 316.943 466.055 316.338C466.055 315.734 465.565 315.244 464.96 315.244H462.224C461.619 315.244 461.129 315.734 461.129 316.338C461.129 316.943 461.619 317.433 462.224 317.433Z" fill="#E9525B"/>
</svg>
